<?xml version="1.0" encoding="UTF-8"?>
<svg id="Layer_1" xmlns="http://www.w3.org/2000/svg" version="1.1" viewBox="0 0 512 512">
  <!-- Generator: Adobe Illustrator 29.2.1, SVG Export Plug-In . SVG Version: 2.1.0 Build 116)  -->
  <defs>
    <style>
      .st0 {
        fill: #fff;
      }
    </style>
  </defs>
  <polygon class="st0" points="109.35 303.59 314.24 452.5 255.42 494.72 87.7 373.2 87 371.87 109.35 303.59"/>
  <polygon class="st0" points="406.2 33.72 470.68 232.64 412.54 274.92 333.57 33.72 406.2 33.72"/>
  <polygon class="st0" points="498.04 319.45 329.74 441.39 270.94 400.18 475.84 250.28 498.04 319.45"/>
  <polygon class="st0" points="150.33 119.67 72.02 360.88 13.96 318.58 78.37 119.67 150.33 119.67"/>
  <polygon class="st0" points="315.49 33.81 337.57 102.34 84.37 103.01 106.78 33.81 315.49 33.81"/>
  <polygon class="st0" points="375.54 217.62 397.45 285.85 330.44 334.81 328.55 334.97 270.95 293.25 375.54 217.62"/>
  <polygon class="st0" points="343.57 119.67 369.47 199.9 310.92 242.27 270.94 119.67 343.57 119.67"/>
  <polygon class="st0" points="209.64 270.93 314.24 346.55 256.91 388.55 254.73 388.1 187.73 339.16 209.64 270.93"/>
  <polygon class="st0" points="212.97 205.63 173.31 328.24 115.1 285.79 141.34 205.63 212.97 205.63"/>
  <polygon class="st0" points="275.6 188.3 146.33 188.3 168.73 119.63 252.97 119.98 275.6 188.3"/>
</svg>