<?xml version="1.0" encoding="UTF-8"?>
<svg id="Layer_1" xmlns="http://www.w3.org/2000/svg" version="1.1" viewBox="0 0 512 512">
  <!-- Generator: Adobe Illustrator 29.2.1, SVG Export Plug-In . SVG Version: 2.1.0 Build 116)  -->
  <defs>
    <style>
      .st0 {
        fill: #fff;
      }

      .st1 {
        fill: #231f20;
      }

      .st2 {
        fill: none;
        stroke: #fff;
        stroke-width: 40px;
      }
    </style>
  </defs>
  <text/>
  <text/>
  <circle class="st2" cx="256" cy="256" r="227.29"/>
  <ellipse class="st0" cx="251.53" cy="263.56" rx="132.81" ry="150.48"/>
  <g>
    <path class="st1" d="M240.72,266.99c-5.73,1.5-10.39,3.67-13.98,6.53-3.51,2.6-6.27,6.07-8.03,10.07-1.75,3.84-2.62,8.08-2.62,12.67,0,6.98,2.44,12.74,7.28,17.35,4.98,4.59,12.43,6.9,22.38,6.9h.02c5.2,0,10.06-.63,14.52-1.87,4.49-1.24,8.52-2.86,12.13-4.85,3.6-1.99,6.7-4.22,9.32-6.7,2.62-2.62,4.66-5.24,6.15-7.84v-34.67h-26.48c-8.07,0-14.98.8-20.69,2.41Z"/>
    <path class="st1" d="M256,35.34c-121.73,0-220.42,98.68-220.42,220.42s98.68,220.42,220.42,220.42,220.42-98.68,220.42-220.42S377.73,35.34,256,35.34ZM347.75,356.88h-52.58v-.02c-1.34-2.74-2.41-5.6-3.18-8.55-.9-3.39-1.65-6.81-2.23-10.27-3,3.23-6.31,6.17-9.88,8.76-3.91,2.84-8.1,5.28-12.5,7.28-4.79,2.09-9.79,3.65-14.91,4.66-5.82,1.28-11.76,1.91-17.72,1.87-9.69.1-19.33-1.42-28.53-4.49-8.12-2.73-15.65-6.97-22.19-12.5-6.14-5.24-11.1-11.72-14.56-19.01-3.47-7.45-5.22-15.54-5.22-24.25,0-21.25,7.91-37.66,23.69-49.23,15.9-11.68,39.59-17.53,71.05-17.53h28.89v-11.92c0-9.71-3.16-17.35-9.51-22.94-6.34-5.73-15.47-8.57-27.41-8.57-10.56,0-18.28,2.29-23.11,6.9-4.85,4.47-7.28,10.51-7.28,18.09h-51.85c0-8.57,1.87-16.72,5.6-24.44,3.84-7.68,9.39-14.47,16.58-20.3,7.33-5.85,16.24-10.46,26.68-13.79,10.56-3.49,22.63-5.24,36.17-5.24,12.19,0,23.5,1.48,33.94,4.47,10.58,2.99,19.71,7.4,27.41,13.25,7.72,5.83,13.74,13.23,18.1,22.17,4.35,8.83,6.51,19.1,6.51,30.78v86.52c0,10.82.7,19.78,2.06,26.85,1.36,7.09,3.35,13.18,5.97,18.28v3.18Z"/>
  </g>
</svg>