<?xml version="1.0" encoding="UTF-8"?>
<svg id="Layer_1" xmlns="http://www.w3.org/2000/svg" version="1.1" viewBox="0 0 512 512">
  <!-- Generator: Adobe Illustrator 29.2.1, SVG Export Plug-In . SVG Version: 2.1.0 Build 116)  -->
  <defs>
    <style>
      .st0 {
        fill: #fcaf16;
      }

      .st1 {
        fill: #58595b;
      }
    </style>
  </defs>
  <path class="st0" d="M127.23,436.46c26.35,0,40.6-12.11,40.6-49.15v-43.46c0-46.3-14.96-60.54-50.56-60.54h-34.91v153.15h44.88ZM112.98,212.08c29.2,0,47.01-12.81,47.01-52.71v-27.77c0-35.62-12.11-51.28-39.9-51.28h-37.75v131.76h30.63ZM4,9.09h118.24c81.2,0,116.1,37.75,116.1,114.67v19.95c0,51.28-15.66,83.33-50.58,97.59v1.42c42.03,14.24,58.42,51.29,58.42,104v42.73c0,76.93-40.61,118.23-118.96,118.23H4V9.09Z"/>
  <path class="st1" d="M345.74,81.54h-81.91V10.31h242.17v71.23h-81.91v427.37h-78.35V81.54Z"/>
</svg>