<?xml version="1.0" encoding="UTF-8"?>
<svg id="Layer_1" xmlns="http://www.w3.org/2000/svg" version="1.1" viewBox="0 0 512 512">
  <!-- Generator: Adobe Illustrator 29.2.1, SVG Export Plug-In . SVG Version: 2.1.0 Build 116)  -->
  <defs>
    <style>
      .st0 {
        fill: #0092a4;
      }

      .st1 {
        fill: none;
      }
    </style>
  </defs>
  <polyline class="st1" points="-183.86 773.07 -375.86 773.07 -375.86 725.07 -183.86 725.07"/>
  <line class="st1" x1="-201.14" y1="548.37" x2="-201.14" y2="480.37"/>
  <g>
    <path class="st0" d="M281.99,216.97c-19.19-4.7-41.7,7.99-47.66,26.85-10.13,32.07,21.71,61.75,53.02,48.99,11.11-4.53,10.98-12,22.18-.67,4.13,4.18,16.81,19.37,15.22,24.58-2.52,8.28-35.09,18.71-43.6,19.58-81.56,8.27-121.58-93.27-58.26-144.2,24.92-20.04,62.72-20.17,90.46-6.24l30.4-30.65c-52.63-35.73-122.56-27.99-164.51,20.1-53.68,61.55-32.98,155.01,38.38,191.42,2.02.69,10.46-4.18,14.12-4.64,8.04-1.01,15.82.89,22.5,5.47,4.5,3.1,8.8,11.15,12.33,11.84,27.52,1.32,56.85-8.18,78.97-24.37,4.26-3.12,19.36-18.17,21.77-18.58,7.29-1.26,18.04,12.94,23.43,18.21,3.39,3.31,6.15,2.57,3.75,10.41-1.53,5-27.13,25.18-32.87,28.88-31.35,20.23-62.17,26.14-99.16,25.83-2.8-.02-5.67-1.58-7.94-1.38-3.14.29-9.09,4.83-14.82,5.35-9.61.87-17.94-2.22-24.89-8.69-13.07-12.16-23.91-14.96-38-25.11-87.65-63.12-91.56-190.5-9.59-260.23,56.63-48.18,147.9-50.7,205.4-2.78l30.19-30.16c-70.02-59.08-170.95-62.87-246.68-11.72-2.56,1.73-18.08,12.99-18.79,14.1-1.21,1.89-1.5,8.39-3.28,12.16-1.58,3.34-6.86,9.44-9.85,11.63-5.08,3.72-13.2,4.38-15.53,6.3-11.27,9.26-31.24,55.2-35.48,70.25-58.81,208.55,205.3,355.9,351.16,196.75,11.53-12.58,19.93-27.42,30.44-40.75,2.5-.78,4.67-.35,7.07.49s24.89,16.1,25.36,17.67c.96,6.19-4.05,12.56-7.3,17.73-68.33,108.9-217.48,143.4-329.09,80.91C33.17,406.44-10.03,255.84,54.83,136.83c3.97-7.28,19.47-27.09,20.95-31.28.55-1.55-.93-8.97-.45-12.69,1.5-11.68,13.41-24.03,25.04-25.98,4.39-.73,10.16.64,13.75-1.02,2.4-1.1,8.59-7.68,11.67-9.82C220.33-9.94,342.52-7.38,431.96,66.39c7-2.38,12.74-16.82,20.94-14.36,1.5.45,21.49,20.12,22.51,21.84,1.14,1.92,1.67,3.02,1.32,5.37l-190.74,192.08c-3.02,1.4-4.75.98-7.44-.59-1.27-.74-20.06-19.53-20.8-20.8-.86-1.46-1.42-2.24-1.42-4.11,0-6.17,21.98-22.11,25.65-28.86Z"/>
    <path class="st0" d="M424.8,190.58c31.25-31.34,77.12,23.48,38.4,48.47-30.52,19.7-64.39-22.41-38.4-48.47Z"/>
  </g>
</svg>