<?xml version="1.0" encoding="UTF-8"?>
<svg id="Layer_1" xmlns="http://www.w3.org/2000/svg" version="1.1" viewBox="0 0 512 512">
  <!-- Generator: Adobe Illustrator 29.2.1, SVG Export Plug-In . SVG Version: 2.1.0 Build 116)  -->
  <defs>
    <style>
      .st0 {
        fill: #8200ff;
      }
    </style>
  </defs>
  <path class="st0" d="M472.1,298.82c-11.97-16.35-35.7-18.18-50.03-3.85l-127.73,127.73c-21.17,21.17-55.49,21.17-76.66,0l-34.32-34.32-17.33-17.32h0l-76.73-76.73c-21.17-21.17-21.17-55.49,0-76.66L217.67,89.3c21.17-21.17,55.5-21.17,76.66,0l127.73,127.73c14.33,14.33,38.06,12.5,50.03-3.85l29.17-39.86c11.1-15.16,9.48-36.15-3.8-49.43L388.11,14.53c-13.28-13.28-34.27-14.9-49.43-3.8l-11.31,8.28h0l-6.09,4.46-33.25,24.34c-19.06,13.95-44.97,13.95-64.03,0l-19.79-14.48-19.56-14.32h0l-11.31-8.28c-15.16-11.1-36.15-9.48-49.43,3.8L14.53,123.89c-13.28,13.29-14.9,34.27-3.8,49.43l37.08,50.66c13.95,19.06,13.95,44.97,0,64.04l-15.68,21.42-21.4,29.24c-11.1,15.16-9.48,36.15,3.8,49.43l109.36,109.36c13.29,13.28,34.27,14.9,49.43,3.8l11.31-8.28h0l19.56-14.32,19.79-14.48c19.06-13.95,44.97-13.95,64.03,0l33.25,24.34,6.09,4.45h0l11.31,8.28c15.16,11.09,36.15,9.48,49.43-3.8l109.36-109.36c13.28-13.28,14.9-34.27,3.8-49.43l-29.17-39.86Z"/>
</svg>