<?xml version="1.0" encoding="UTF-8"?>
<svg id="Layer_1" xmlns="http://www.w3.org/2000/svg" version="1.1" viewBox="0 0 512 512">
  <!-- Generator: Adobe Illustrator 29.2.1, SVG Export Plug-In . SVG Version: 2.1.0 Build 116)  -->
  <defs>
    <style>
      .st0 {
        fill: #ffee02;
      }
    </style>
  </defs>
  <path class="st0" d="M512,401.53h-119.25c.93-71.6-29.01-140.21-88.27-181.4-38.21-26.56-83.8-38.48-129.94-41.82l-174.54.05v-67.83l223.77-.05c118.99,5.05,224.88,62.57,268.26,177.01,13.85,36.55,19.03,75.03,19.97,114.05Z"/>
  <path class="st0" d="M303.04,401.53h-89.71c.02-34.6-12.57-67.89-38.81-90.83-47.88-41.86-115.99-28.14-174.52-30.6v-50.32c43.18,1.53,87.75-2.03,130.78-.05,70.36,3.25,133.89,35.54,159.95,103.71,8.44,22.06,11.63,44.51,12.31,68.1Z"/>
  <path class="st0" d="M122.53,401.53H0v-68.92h61.81c3.52,0,16.03,3.78,19.89,5.27,26.22,10.14,42.39,35.49,40.83,63.65Z"/>
</svg>