<?xml version="1.0" encoding="UTF-8"?>
<svg id="Layer_1" xmlns="http://www.w3.org/2000/svg" version="1.1" viewBox="0 0 512 512">
  <!-- Generator: Adobe Illustrator 29.2.1, SVG Export Plug-In . SVG Version: 2.1.0 Build 116)  -->
  <defs>
    <style>
      .st0 {
        fill: #e70302;
      }
    </style>
  </defs>
  <path class="st0" d="M7.02,470.78v-112.81h292.27c12.47,0,43.4-16.2,53.26-24.67,68.42-58.77,25.37-169.01-61.5-176.29-47.36-3.97-99.77,2.93-147.69-.08-6.18-.85-21.49,10.32-21.49,15.43v153.83l-3.08,3.08H10.1l-3.08-3.08v-157.93c0-59.43,58.1-118.02,116.13-123.84,48-4.81,135.45-3.61,184.43-.33,170.77,11.42,259.56,221.58,147.61,352.88-27.73,32.52-94.01,73.81-137.44,73.81H7.02Z"/>
</svg>