<?xml version="1.0" encoding="UTF-8"?>
<svg id="Layer_1" xmlns="http://www.w3.org/2000/svg" version="1.1" viewBox="0 0 512 512">
  <!-- Generator: Adobe Illustrator 29.2.1, SVG Export Plug-In . SVG Version: 2.1.0 Build 116)  -->
  <defs>
    <style>
      .st0 {
        fill: #0554c9;
      }
    </style>
  </defs>
  <path class="st0" d="M251.21,508.1c-12.5-.28-24.75-1.42-36.91-3.44-2.97-.5-7.96-1.43-8.53-1.6l-.29-.09v-50.1c0-27.55.02-50.09.05-50.09s1.07.34,2.31.76c11.93,4.01,26.1,6.68,39.76,7.48l2.86.17h11.6l2.86-.17c13.54-.79,27.89-3.48,39.51-7.39,1.1-.37,2.03-.68,2.06-.68s.05,22.51.05,50.01v50.01l-.29.09c-1.24.37-9.69,1.84-14.5,2.53-12.98,1.85-28.16,2.79-40.52,2.52ZM113.64,464.09c-26.06-17.92-47.92-39.77-65.8-65.78l-2.31-3.36,35.77-.04c19.68-.02,35.8-.02,35.83.01.03.03.04,16.14.01,35.8l-.04,35.75-3.47-2.38ZM394.81,430.7v-35.83h71.64l-.16.29c-3.25,6.06-17.74,24.17-28.07,35.07l-3.8,4.01-4.04,3.83c-11.05,10.48-20.8,18.37-32.92,26.64l-2.65,1.81v-35.83ZM8.9,306.53s-.19-1-.43-2.14c-2.21-10.82-3.81-24.09-4.47-37.14l-.19-3.78v-15.13l.19-3.78c.66-13.05,2.26-26.32,4.47-37.14.23-1.15.43-2.11.43-2.14s22.52-.06,50.04-.06h50.04l-.09.21c-3.27,8.04-6.74,24.69-7.97,38.3l-.3,3.28v17.66l.3,3.28c1.2,13.32,3.44,24.5,7.26,36.22.42,1.29.76,2.37.76,2.4,0,.03-22.51.06-50.02.06s-50.02-.03-50.02-.06ZM403.38,255.89v-50.7h49.85c27.42,0,49.86.03,49.86.06s.19,1,.42,2.14c2.21,10.82,3.81,24.09,4.47,37.14l.19,3.78v15.13l-.19,3.78c-.66,13.05-2.26,26.32-4.47,37.14-.23,1.15-.42,2.11-.42,2.14,0,.03-22.44.06-49.86.06h-49.85v-50.7ZM252.88,306.09c-10.38-.7-19.78-4.28-27.99-10.63l-2.02-1.56-2.52-2.52-2.52-2.52-1.56-2.02c-5.79-7.48-9.26-15.91-10.39-25.32l-.27-2.26v-6.9l.27-2.26c1.14-9.41,4.6-17.84,10.39-25.32l1.56-2.02,2.52-2.52,2.52-2.52,2.02-1.56c7.48-5.79,15.91-9.26,25.32-10.39l2.26-.27h6.89l2.26.27c9.41,1.14,17.84,4.6,25.32,10.39l2.02,1.56,2.52,2.52,2.52,2.52,1.56,2.02c5.8,7.48,9.25,15.91,10.39,25.32l.27,2.26v6.9l-.27,2.26c-1.14,9.41-4.6,17.84-10.39,25.32l-1.56,2.02-2.52,2.52-2.52,2.52-2.02,1.56c-8.71,6.75-18.64,10.31-29.76,10.68l-2.35.08-1.94-.13ZM45.71,116.62c3.25-6.08,17.77-24.21,28.11-35.11l3.83-4.04,4.01-3.8c11.04-10.47,20.78-18.35,32.89-26.6l2.65-1.81v71.65H45.55l.16-.29ZM394.81,81.09v-35.83l2.65,1.81c12.12,8.27,21.87,16.16,32.92,26.64l4.04,3.83,3.8,4.01c10.33,10.9,24.83,29.01,28.07,35.07l.16.29h-71.64v-35.83ZM205.47,58.83V8.82l.29-.09c.57-.17,5.55-1.1,8.53-1.6,9.98-1.66,19.57-2.68,30.35-3.23l3.78-.19h15.13l3.78.19c10.78.54,20.37,1.57,30.35,3.23,2.98.5,7.96,1.43,8.53,1.6l.29.09v49.93c0,27.46-.02,49.93-.05,49.93-.03,0-.95-.3-2.06-.68-11.62-3.91-25.97-6.6-39.51-7.39l-2.86-.17h-11.6l-2.86.17c-13.66.8-27.83,3.46-39.76,7.48-1.24.42-2.28.76-2.31.76s-.05-22.51-.05-50.01Z"/>
</svg>