<?xml version="1.0" encoding="UTF-8"?>
<svg id="Layer_1" xmlns="http://www.w3.org/2000/svg" version="1.1" xmlns:xlink="http://www.w3.org/1999/xlink" viewBox="0 0 512 512">
  <!-- Generator: Adobe Illustrator 29.2.1, SVG Export Plug-In . SVG Version: 2.1.0 Build 116)  -->
  <defs>
    <style>
      .st0 {
        fill: #fff;
      }

      .st1 {
        fill: #b82a33;
      }
    </style>
  </defs>
  <path class="st0" d="M373.6,482.8c31.5-13.6,90.6-63.2,104.5-103.6,24.6-71.3-71.4-272.3-71.4-272.3,0,0-191.1-94.5-265.3-78.3-20.6,4.5-113.2,71.9-106,120.3,12.1,82,63.5,284.5,63.5,284.5,0,0,204,80.1,274.7,49.5Z"/>
  <path class="st1" d="M0,248.9c.4-12.3,1.7-25.1,3.8-37.3,6.7-38.3,22.3-74.9,45.2-106.1.7-.3,1.4,1.2,1.8,1.5,15.8,14.9,30.7,30.8,46.1,46.1s2.6,2.2,3.6,3.6c8,.1,16.1,0,24.1-.1s1.1-.3,1.7-.3c2,0,4.1,0,6.1,0-17.5,22-29.4,48.5-33.5,76.4-15.1,105.1,74.5,194.9,179.6,180.1,26.9-3.8,53-15.1,74.3-31.7.4.2.3.6.3.9-.1,4.9-.4,9.8-.4,14.7s0,8.3.2,12.4c17.5,17.3,34.9,34.6,52,52,.3.3,1.2,1,1.6,1.3.2.4-1.1,1.2-1.4,1.4-41.2,30.9-94.8,46.9-146.1,48.1h-6c-.3-.4-.9-.3-1.4-.3C118.1,510.3,5.5,401.9.3,268.1c0-1.7.3-3.6-.2-5.1.1-4.7-.1-9.3,0-14Z"/>
  <path class="st1" d="M434.1,72c81.5,79,101.6,202.9,48.2,303.8-4.9,9.3-10.7,18.2-16.4,27l-.6-.2-53.1-53.1-28.3.4c15.3-21.2,25.7-46.1,29.2-72.2,14-104.4-75-192.9-179.3-178.6-26.9,3.7-52.7,14.9-74.2,31.2l.4-33-50.6-50.7c0-.4,1.1-1.1,1.4-1.3,4.9-3.7,11.2-7.4,16.5-10.5C226.2-23,352.2-7.4,434.1,72Z"/>
  <path class="st1" d="M352.2,152.8c63.8,59.5,58.9,161.6-10,214.9-63.7,49.3-155.2,35-201.5-30.3-35.9-50.6-34.3-119.3,3.9-168.1,51.2-65.4,146.7-73.3,207.6-16.5ZM306.5,146.8c.4-.4,1.9-2.1,1.8-2.5-7.7-3.9-16.5-6.9-25-8.8-85.6-19.2-162.9,53.8-149.2,140.3,10.1,63.7,69,109.2,133.4,103.2,4.6-.4,9.1-1.4,13.6-2,.1-.6-.1-.4-.3-.6-4.9-3.4-10.3-6.2-15.3-9.7-8.4-5.9-20.2-14.2-23.1-24.4-3.8-13.3-3.2-28.8-7.5-41.8-3.8-11.7-17.1-9.5-27-10.5-25.2-2.6-38.3-29.1-27.9-51.6s19.4-21.1,32.2-23.8c8.6-1.8,13.3,1.8,20.2,6.2,6.8,4.3,22,17.3,29.3,17.5,3.6,0,8.7-4.1,12.1-5.9,5.4-2.9,12.8-4.6,16.5-9.7,1.3-1.8.9-2.7,1.3-4.5.6-3.4,2.9-6.2,3.7-9.8s1.2-4.7-2.6-5.3c-5.7-1-10.7,1.2-13.2,6.5s-.2,8.8-4.8,12.2-10.9.4-15.5-3.9c-4.3-4.1-6.6-8.2-10.2-12.5-5.9-7-17.9.3-25.4-1.4s-8.1-4.7-10-8.5-1.4-4.2,2.5-5.3,11.3-1.6,16.5-3.8,9.2-8.8,17.3-6.3c4.2,1.3,5.9,4.9,10.8,3.7,3.6-.9,8.7-6.4,8.1-10.3-.2-1.3-1.2-2.7-2.6-2.9-3.6,0-11.4,1.5-13.3-2.5s-.8-2.6-.5-3.8c1-3.8,12.7-12,16.3-14.2,5.8-3.5,14.2-7.9,21.1-6.5s3.9,3.4,6.6,5.1,7.2,1,10-1.8ZM376.4,282.7c-7.6.3-8.8-9.1-11.5-14.4-.6-1.2-1.8-3.4-2.8-4.2-3.9-3.2-18-.8-23.6-1.9s-3.9-1.5-6.1-1.9c-4.3-.7-8.5-.7-12.8-1.7-7.4-1.6-16.9-7.9-18.7,3.8-.9,5.4,0,7.8,5.4,9,4.9,1.1,7.3,0,10.7,4.6,3.1,4.2,3.1,5.8,2,10.9-2.5,11.7-8.6,19.5-15.8,28.4s-12.8,25.2-14,37c-.8,7.5,0,15.1-.3,22.6,43.3-11.7,78.5-48.2,87.5-92.3Z"/>
  <path class="st0" d="M306.5,146.8c-2.7,2.8-6.4,4.2-10,1.8s-2.7-4.3-6.6-5.1c-6.9-1.4-15.4,3-21.1,6.5s-15.3,10.4-16.3,14.2,0,2.7.5,3.8c1.9,3.9,9.7,2.4,13.3,2.5,1.4.2,2.4,1.6,2.6,2.9.6,3.9-4.4,9.4-8.1,10.3-4.9,1.2-6.6-2.4-10.8-3.7-8.1-2.5-10.9,3.6-17.3,6.3s-11.2,2.2-16.5,3.8-4.5,1.5-2.5,5.3,5.8,7.5,10,8.5c7.5,1.7,19.5-5.6,25.4,1.4s5.9,8.4,10.2,12.5c4.6,4.4,9.2,8.6,15.5,3.9s2.6-7.7,4.8-12.2,7.5-7.5,13.2-6.5,3.4,2.1,2.6,5.3-3.1,6.3-3.7,9.8c-.3,1.8,0,2.7-1.3,4.5-3.7,5.1-11.1,6.9-16.5,9.7s-8.4,6-12.1,5.9c-7.3-.2-22.5-13.2-29.3-17.5-6.9-4.4-11.6-8-20.2-6.2-12.8,2.7-26.6,11.7-32.2,23.8-10.4,22.6,2.7,49.1,27.9,51.6,9.9,1,23.2-1.2,27,10.5,4.3,13,3.7,28.5,7.5,41.8,2.9,10.2,14.7,18.5,23.1,24.4,5,3.5,10.4,6.4,15.3,9.7s.5,0,.3.6c-4.5.6-9.1,1.6-13.6,2-64.4,6-123.3-39.5-133.4-103.2-13.7-86.5,63.7-159.5,149.2-140.3,8.5,1.9,17.3,4.9,25,8.8,0,.4-1.5,2.1-1.8,2.5Z"/>
  <path class="st0" d="M376.4,282.7c-9.1,44-44.2,80.6-87.5,92.3.3-7.5-.5-15.2.3-22.6,1.2-11.9,6.5-27.7,14-37s13.3-16.7,15.8-28.4c1.1-5.1,1.2-6.7-2-10.9-3.4-4.6-5.7-3.5-10.7-4.6-5.5-1.3-6.3-3.6-5.4-9,1.9-11.7,11.4-5.4,18.7-3.8s8.6.9,12.8,1.7c2.2.4,4.1,1.5,6.1,1.9,5.6,1.1,19.7-1.3,23.6,1.9s2.2,3,2.8,4.2c2.6,5.3,3.8,14.7,11.5,14.4Z"/>
</svg>