<?xml version="1.0" encoding="UTF-8"?>
<svg id="Layer_1" xmlns="http://www.w3.org/2000/svg" version="1.1" viewBox="0 0 512 512">
  <!-- Generator: Adobe Illustrator 29.2.1, SVG Export Plug-In . SVG Version: 2.1.0 Build 116)  -->
  <defs>
    <style>
      .st0 {
        fill: #2e7aea;
      }
    </style>
  </defs>
  <path class="st0" d="M218.54,108.47s0,.01,0,.02l132.01,64.32c4.95,2.41,10.1-2.92,7.61-7.89l-66.25-132.49s-.01,0-.02,0c0,0-.01,0-.02,0-2.71-5.57-6.38-10.79-11-15.38-21.94-21.78-57.13-21.39-78.6.86-21.47,22.26-21.09,57.96.85,79.73,4.63,4.59,9.84,8.2,15.4,10.83,0,0,0,.01,0,.02Z"/>
  <path class="st0" d="M218.54,403.53s0-.01,0-.02l132.01-64.32c4.95-2.41,10.1,2.92,7.61,7.89l-66.25,132.5s-.01,0-.02,0c0,0-.01,0-.02,0-2.71,5.57-6.38,10.79-11,15.38-21.94,21.78-57.13,21.39-78.6-.86-21.47-22.26-21.09-57.96.85-79.73,4.63-4.59,9.84-8.2,15.4-10.83,0,0,0-.01,0-.01Z"/>
  <path class="st0" d="M164.25,372.82c7.33,0,13.27-6.03,13.27-13.46v-208.63c0-7.43-5.94-13.46-13.27-13.46-.89,0-1.78,0-2.66,0-5.17-.01-10.34-.03-15.49.4-6.4.53-11,6.2-11,12.72v209.32c0,6.52,4.6,12.18,11,12.71,5.16.43,10.32.42,15.49.4.89,0,1.78,0,2.66,0Z"/>
  <path class="st0" d="M92.66,329.19c0,10.67-11.5,16.76-18.95,9.22-21.06-21.32-34.09-50.8-34.09-83.37s13.03-62.05,34.09-83.37c7.45-7.54,18.95-1.45,18.95,9.22v148.29Z"/>
  <path class="st0" d="M354.62,282.77c-.57,2.39-2.21,4.35-4.39,5.41l-33.42,16.28c-5.56,2.71-12-1.4-12-7.66v-83.52c0-6.26,6.44-10.37,12-7.66l33.42,16.28c2.18,1.06,3.82,3.03,4.39,5.41,2.11,8.89,3.24,18.18,3.24,27.73s-1.12,18.84-3.24,27.73Z"/>
  <path class="st0" d="M472.31,209.04c-1.11,16.86-15.48,29.63-32.1,28.53-16.62-1.1-29.19-15.66-28.07-32.52,1.11-16.86,15.48-29.63,32.1-28.53,16.62,1.1,29.19,15.66,28.07,32.52"/>
  <path class="st0" d="M472.31,305.06c-1.11,16.86-15.48,29.63-32.1,28.53-16.62-1.1-29.19-15.66-28.07-32.52,1.11-16.86,15.48-29.63,32.1-28.53,16.62,1.1,29.19,15.66,28.07,32.52"/>
  <path class="st0" d="M257.66,333.25c2.89-1.38,4.72-4.31,4.72-7.51v-141.41c0-3.2-1.83-6.13-4.72-7.51-2.79-1.33-5.6-2.65-8.41-3.97-5.56-2.61-11.14-5.23-16.64-7.97-5.73-2.85-12.66,1.24-12.66,7.65v165.01c0,6.4,6.93,10.5,12.66,7.65,5.5-2.74,11.08-5.36,16.64-7.97,2.81-1.32,5.62-2.64,8.41-3.97Z"/>
</svg>