<?xml version="1.0" encoding="UTF-8"?>
<svg id="Layer_1" xmlns="http://www.w3.org/2000/svg" version="1.1" viewBox="0 0 512 512">
  <!-- Generator: Adobe Illustrator 29.2.1, SVG Export Plug-In . SVG Version: 2.1.0 Build 116)  -->
  <defs>
    <style>
      .st0 {
        fill: #fff;
        fill-rule: evenodd;
      }
    </style>
  </defs>
  <path class="st0" d="M340.05,58.34c53.11,0,96.54,15.42,125.8,44.27,25.65,25.55,39.38,61.01,38.71,99.55-.67,33.04-16.2,64.31-43.66,88.09-26.1,22.46-60.08,35.24-93.62,35.24h-2.25l-88.67-1.54.22-18.28,88.67,1.54c29.25.44,56.93-10.35,78.09-30.17,21.15-20.04,33.08-46.69,33.53-75.32.45-23.13-6.53-45.37-20.48-64.31l-.9.44c7.43,15.42,11.03,31.93,10.8,49.11-1.13,60.79-51.98,109.24-113.64,109.24h-2.03l-84.39-1.54-31.06-.66-54.46-.88h-1.12c-35.33,0-64.36,27.75-65.04,62.55-.23,14.98,4.95,29.73,14.63,41.4l2.25,2.64-1.35-3.3c-3.38-8.37-5.18-16.96-4.95-25.99.68-36.78,31.5-66.29,68.86-66.29h1.35l29.25.44-.22,18.28-29.25-.44h-.9c-27.23,0-49.73,21.36-50.18,48.23-.22,13.21,3.83,23.13,11.93,29.73,7.65,6.17,18.68,9.47,33.08,9.69,13.05.22,24.53-5.51,33.08-15.86,7.88-9.47,12.38-22.9,12.6-36.34l.9-52.86,29.93.66-.9,52.86c-.45,25.11-8.55,48.01-22.73,64.31-18,20.48-44.33,30.83-78.99,30.83-51.31,0-90.92-13.87-117.92-40.74-24.98-24.89-38.26-61.67-37.58-103.07.68-33.48,14.63-64.75,39.38-88.09,24.08-22.69,55.81-35.24,89.12-35.24h2.47l88.67,1.54-.22,18.28-88.67-1.54c-29.25-.44-56.93,10.35-78.09,30.17-21.15,20.04-33.08,46.69-33.53,75.32-.45,23.13,6.53,45.37,20.48,64.31l.9-.44c-7.43-15.42-11.03-31.93-10.8-49.11.45-29.51,12.83-57.26,34.66-77.96,21.38-20.26,49.28-31.27,78.76-31.27h2.02l84.39,1.54,31.06.66,54.46.88h1.12c35.33,0,64.36-27.75,65.04-62.55.22-14.98-4.95-29.73-14.63-41.4l-2.25-2.64,1.35,3.3c3.38,8.15,4.95,16.96,4.73,25.99-.68,36.78-31.51,66.29-68.86,66.29h-1.35l-29.26-.44.23-18.28,29.25.44c13.5.44,26.11-4.63,35.78-13.66,9.68-9.03,15.08-21.36,15.3-34.36.22-13.21-3.82-23.12-11.93-29.73-7.65-6.17-18.68-9.47-33.08-9.69h-.67c-12.6,0-24.08,5.73-32.41,15.86-7.88,9.47-12.38,22.9-12.6,36.34l-.9,52.86-29.93-.66.9-52.86c.22-18.5,4.5-44.71,22.28-65.19,17.33-20.04,44.11-30.17,79.44-30.17ZM352.65,277.91c51.53,0,93.84-40.52,94.97-91.84.45-20.48-6.08-40.08-18.45-56.6l-3.15-3.96,2.02,4.62c6.08,12.99,9,27.09,8.78,41.4-.45,25.77-11.25,49.99-30.15,67.83-18.45,17.4-42.76,27.09-68.41,27.09h-1.8l-58.96-1.1.22-18.28,58.96,1.1h1.35c20.7,0,40.28-7.93,55.36-22.02,15.53-14.54,24.08-33.92,24.53-54.84.22-18.06-5.4-35.02-16.65-49.11l-2.7-3.3,1.8,3.96c4.73,10.57,6.98,22.02,6.75,33.7-.45,21.8-9.45,42.29-25.65,57.48-15.75,14.98-36.23,23.13-58.06,23.13h-1.58l-54.46-.88h-.45v.22l-29.93-.66-84.84-1.54h-1.8c-51.53,0-93.84,40.52-94.74,91.18-.45,20.48,5.85,40.08,18.45,56.6l2.93,3.96-2.03-4.63c-6.08-12.99-9-27.09-8.78-41.4.9-52.64,45.01-94.92,98.57-94.92h1.8l58.74,1.54-.22,18.28-58.96-1.1h-1.35c-43.43,0-79.21,34.14-79.89,76.86-.23,18.06,5.4,34.8,16.65,49.11l2.7,3.3-1.8-3.96c-4.73-10.57-6.98-22.02-6.75-33.7.45-21.8,9.45-42.28,25.65-57.48,15.75-14.98,36.23-23.13,58.06-23.13h1.58l54.46.88,31.06.66,84.39,1.54h1.8Z"/>
</svg>