<?xml version="1.0" encoding="UTF-8"?>
<svg id="Layer_1" xmlns="http://www.w3.org/2000/svg" version="1.1" viewBox="0 0 512 512">
  <!-- Generator: Adobe Illustrator 29.2.1, SVG Export Plug-In . SVG Version: 2.1.0 Build 116)  -->
  <defs>
    <style>
      .st0 {
        fill: #fff;
      }

      .st1 {
        fill: #2d8eff;
      }
    </style>
  </defs>
  <rect class="st0" x="43.52" y="32.43" width="434.35" height="434.35"/>
  <path class="st1" d="M180.91,317.54h49.85c14.26.01,28.34-3.14,41.23-9.23,12.17-6.03,23.05-14.39,32-24.61,8.86-10.58,15.73-22.68,20.28-35.7,4.94-13.18,7.44-27.15,7.39-41.23.09-13.74-2.64-27.34-8-39.99-5.15-12.83-12.45-24.7-21.57-35.09-9.16-10.42-20.23-18.98-32.61-25.22-12.74-6.58-26.89-9.96-41.23-9.85H97.28v318.11h83.63v-97.18ZM180.91,173.53h42.46c5.88.39,11.38,3.04,15.36,7.39,4.93,4.92,8,13.53,8,27.07s-3.07,21.56-7.39,25.86c-3.69,4.3-8.53,7.39-14.15,7.39h-44.29v-67.7Z"/>
  <path class="st1" d="M0,29.41v453.19c0,16.23,13.14,29.4,29.37,29.41h453.22c16.23,0,29.4-13.14,29.41-29.37V29.41C512.01,13.17,498.86,0,482.63,0c-.01,0-.02,0-.03,0H29.41C13.17,0,0,13.14,0,29.37c0,.01,0,.02,0,.03ZM422.28,451.69H89.11c-16.23,0-29.38-13.17-29.37-29.41h0V89.11c0-16.22,13.15-29.36,29.37-29.37h333.18c16.23,0,29.4,13.14,29.41,29.37v333.18c0,16.23-13.14,29.4-29.37,29.41h-.03Z"/>
  <rect class="st1" x="218.45" y="355.07" width="196.3" height="60.31"/>
</svg>