<?xml version="1.0" encoding="UTF-8"?>
<svg id="Layer_1" xmlns="http://www.w3.org/2000/svg" version="1.1" viewBox="0 0 512 512">
  <!-- Generator: Adobe Illustrator 29.2.1, SVG Export Plug-In . SVG Version: 2.1.0 Build 116)  -->
  <defs>
    <style>
      .st0 {
        fill: #f35130;
      }
    </style>
  </defs>
  <path class="st0" d="M390.81,273.14c-8.15-1.17-16.45-1.97-24.33-4.08-28-7.63-51.34-31.93-57.71-60.28-4.65-25.88-2.17-49.06-27.35-64.89-38.55-23.3-85.52,12.22-73.16,55.75,4.1,14.08,14.27,25.59,27.74,31.38,11.46,5.02,24.86,5.37,37.6,7.83,29.1,5.27,55.35,27.36,63.81,55.87,16.24,59.78-20.63,116.1-84.16,116.73-36.43-.46-73.12-26.87-81.03-63.16-4.6-26.17-1.13-49.41-26.46-66.26-31.09-20.24-73.68.82-75.8,38.02-1.64,20.11,10.34,40.13,28.8,48.23,16.75,7.65,36.84,5,54.06,12.23,17.99,7.28,33.07,21.33,42.28,38.35,8.94,15.55,8.33,33.97,11.79,51.02,8.43,42.49,63.06,55.09,88.62,19.89,10.76-14.27,10-33.2,13.41-50.02,6.05-29.53,30.65-53.99,59.54-61.72,14.47-3.89,30.29-3.8,43.34-10.01,22.57-10.14,33.96-37.8,25.47-60.97-6.84-20.32-25.59-31.67-46.21-33.83l-.23-.03-.03-.03h0Z"/>
  <path class="st0" d="M119.18,237.71c8.46,1.27,17.09,2.14,25.29,4.42,17.16,4.73,32.58,15.48,43.62,29.38,28.16,33.04,3.79,70.1,41.18,95.16,38.72,24,86.4-12.03,73.47-55.93-4.58-15.51-17.01-27.73-32.13-32.61-10.72-3.6-22.66-3.57-34.09-5.35-29.4-4.06-55.24-27.28-63.75-55.44-5.31-19.65-5.18-41.2.7-60.7,27.37-77.44,143.22-74.45,164.38,5.42,3.95,21.12,1.24,44.03,18.19,60.12,29.48,29.76,81.45,10.66,83.97-31.37,1.63-20.11-10.34-40.12-28.8-48.23-16.61-7.57-36.41-5.19-53.37-12.43-17.9-7.38-32.88-21.47-41.98-38.5-8.8-15.49-8.15-33.74-11.6-50.66-8.51-42.76-63.72-55.17-88.98-19.32-10.74,14.52-9.42,33.57-12.33,50.6-5.32,29.5-30.26,54.3-59.17,61.36-15.6,3.73-32.5,2.49-46.72,9.85-21.65,10.35-32.56,37.38-24.49,59.94,6.71,20.57,25.53,32.02,46.38,34.25l.23.04h0s0,0,0,0ZM283.93,411.68h-56.75c-12.03,0-21.79,9.75-21.79,21.79h0v56.75c0,12.03,9.75,21.79,21.79,21.79h56.75c12.03,0,21.79-9.74,21.8-21.78h0v-56.76c0-12.03-9.75-21.79-21.79-21.79h0Z"/>
  <path class="st0" d="M420.01,274.44h-56.76c-12.03,0-21.78,9.76-21.78,21.79v56.75c0,12.03,9.75,21.78,21.78,21.79h56.76c12.03,0,21.79-9.75,21.79-21.79h0v-56.75c0-12.03-9.75-21.79-21.79-21.79h0ZM89.96,274.44h27.74c28.04.02,50.77,22.75,50.78,50.79v27.73c0,12.03-9.76,21.78-21.79,21.79h-56.74c-12.03,0-21.78-9.76-21.79-21.79v-56.74c0-12.03,9.76-21.78,21.79-21.79ZM283.93,0h-56.75C215.15,0,205.4,9.75,205.4,21.79v56.76c0,12.03,9.76,21.78,21.79,21.78h56.75c12.03,0,21.79-9.74,21.8-21.78h0V21.79C305.73,9.75,295.98,0,283.94,0c0,0,0,0,0,0ZM146.71,137.22h-56.75c-12.03,0-21.79,9.75-21.79,21.79v56.75c0,12.03,9.75,21.79,21.79,21.79h56.75c12.03,0,21.79-9.75,21.79-21.79h0v-56.75c0-12.03-9.75-21.79-21.79-21.79,0,0,0,0,0,0ZM363.25,137.21h56.74c12.03,0,21.78,9.76,21.79,21.79v56.75c-.01,12.03-9.76,21.77-21.79,21.78h-26.03c-28.99-.02-52.49-23.51-52.5-52.5v-26.03c0-12.03,9.76-21.78,21.79-21.79,0,0,0,0,0,0Z"/>
</svg>