<?xml version="1.0" encoding="UTF-8"?>
<svg id="Layer_1" xmlns="http://www.w3.org/2000/svg" version="1.1" viewBox="0 0 512 512">
  <!-- Generator: Adobe Illustrator 29.2.1, SVG Export Plug-In . SVG Version: 2.1.0 Build 116)  -->
  <defs>
    <style>
      .st0 {
        fill: #751cf6;
      }

      .st1 {
        fill: #fff;
      }
    </style>
  </defs>
  <circle class="st0" cx="256" cy="256" r="256"/>
  <g id="Capa_1">
    <g>
      <path class="st1" d="M406.81,251.98h-16.73c-1.94-34.67-14.53-64.88-39.13-89.61-24.63-24.8-54.71-37.62-89.71-39.59v-16.78c34.35,1.56,65.07,12.62,91.29,34.8,34.22,28.94,52.05,66.09,54.28,111.2"/>
      <path class="st1" d="M354.29,251.95h-16.63c-1.76-20.42-9.26-38.08-23.8-52.72-14.58-14.66-32.27-22.16-52.66-24.15v-16.5c20.49.8,38.79,7.57,54.94,19.94,27.36,20.97,37.42,50.82,38.15,73.43"/>
      <path class="st1" d="M302.21,252.05c-5.14,0-10.02.05-14.89-.07-.65,0-1.71-.84-1.87-1.46-3-12.17-10.65-19.73-22.64-23.06-.53-.15-1.03-.35-1.62-.56v-16.56c24.83,2.4,40.27,23.14,41.03,41.73"/>
      <path class="st1" d="M277.46,319.76c.51,47.03-38.41,88.12-89.8,86.17-43.02-1.62-82.34-36.09-82.47-86.17-.12-47.46,37.02-85.89,86.04-86.22,25.05-.17,46.6,9.46,63.81,28.03,12.94,13.96,22.78,34.85,22.44,58.17"/>
    </g>
  </g>
</svg>