<?xml version="1.0" encoding="UTF-8"?>
<svg id="Layer_1" xmlns="http://www.w3.org/2000/svg" version="1.1" viewBox="0 0 512 512">
  <!-- Generator: Adobe Illustrator 29.2.1, SVG Export Plug-In . SVG Version: 2.1.0 Build 116)  -->
  <defs>
    <style>
      .st0 {
        fill: #fff;
      }
    </style>
  </defs>
  <path class="st0" d="M295.99,465.17h-14.48c-11.25-1.51-22.86-2.33-34.18-4.56-83.12-16.43-150.25-84.7-164.3-168.25l-66.84-.16c-1.7-.57-1.83-3.03-1.96-4.55-.45-5.04-.83-14.38,1.84-18.48h64.1c-1.07-14.93-.4-30.1,2.17-44.84H16.07c-2.67-4.1-2.3-13.43-1.84-18.48.14-1.51.26-3.98,1.96-4.55l70.52-.45c21.39-76.62,85.46-136.51,164.24-150.6,144.7-25.87,269.09,98.37,243.86,242.8-17,97.31-101.01,167.14-198.82,172.11ZM194.39,87.07c-7.46,1.7-7.45,14.8,2.02,15.09,11.98.38,10.17-17.87-2.02-15.09ZM375.91,89.33c-7.69,7.49,4.47,18.73,11.37,10.99s-4.49-17.68-11.37-10.99ZM298.25,178.69l-.13-63.16c-2.47-9.96-14.81-10.43-18.02-.73l-.05,64.68c-20.63,2.15-38.77,13.82-51.77,29.49l-55.53-31.88c-9.75-2.93-16.88,8.94-8.53,15.74l54.94,31.94c-5.25,12.22-7.48,25.65-6.45,38.97.54,7.02,3.18,13.65,4.25,20.53l-53.44,29.44c-8.53,6.36-2.66,18.63,7.93,15.87,16.57-8.12,32.06-18.45,48.48-26.79,1.35-.68,5.28-3.06,6.42-2.41,11.64,18.06,32.34,30.69,53.7,33.17l.04,60.35c2.88,9.95,15.73,9.19,18.02-.73l.12-58.82c21.93-2.78,42.68-13.73,55.37-31.94l52.26,29.53c9.82,2.01,15.31-8.77,8.42-15.64l-51.6-30.1c8.45-19.24,7.65-42.36-.64-61.52l53.05-30c7.77-6.31,1.34-18.39-8.34-15.55l-53.95,29.3c-3.84-3.05-6.98-7.48-10.86-10.82-12.3-10.57-27.61-16.95-43.72-18.9ZM472.5,247.63c-9.08,2.05-6.8,18.45,5.32,14.71,7.54-2.33,5.34-17.12-5.32-14.71ZM194.41,408.91c-11.57,2.24-4.74,19.92,5.2,14.61,8.12-4.34,3.66-16.33-5.2-14.61ZM380.54,408.91c-3.21.62-5.83,3.74-6.2,6.91-.91,7.98,11.14,11.85,14.91,3.98,2.85-5.94-2.56-12.09-8.71-10.89Z"/>
</svg>