<?xml version="1.0" encoding="UTF-8"?>
<svg id="Layer_1" xmlns="http://www.w3.org/2000/svg" version="1.1" viewBox="0 0 512 512">
  <!-- Generator: Adobe Illustrator 29.2.1, SVG Export Plug-In . SVG Version: 2.1.0 Build 116)  -->
  <defs>
    <style>
      .st0 {
        fill: #7ee0ff;
      }

      .st1 {
        fill: #00c3ff;
      }
    </style>
  </defs>
  <path class="st1" d="M408.57,144.74c10.07,14.11,18.16,29.51,24.18,45.8l21.52-7.01c-6.81-18.65-16.19-36.32-27.73-52.41l-17.96,13.62Z"/>
  <path class="st1" d="M261.41,42.99c-5.72-.2-11.55-.2-17.27,0l1.58,22.5c8.69-.3,17.37-.1,25.96.69,8.59.79,17.17,2.17,25.66,4.15l5.72-21.81c-9.67-2.27-19.44-3.85-29.31-4.74-4.05-.39-8.29-.69-12.34-.79Z"/>
  <path class="st1" d="M50.69,355.17c-8.98-18.36-15.5-37.8-19.25-57.84l-23.59,3.75c4.15,22.7,11.45,44.71,21.71,65.34l21.12-11.25Z"/>
  <path class="st1" d="M38.55,128.26l20.92,11.65c10.46-17.57,23.19-33.56,38-47.67l-15.99-17.77c-16.78,15.89-31.19,33.95-42.93,53.79Z"/>
  <path class="st1" d="M8.94,205.15l23.49,4.15c4.15-20.04,11.05-39.38,20.43-57.54l-20.92-11.55c-10.66,20.53-18.36,42.34-23,64.94Z"/>
  <path class="st1" d="M162.03,22.85l9.38,21.91c19.05-7.5,38.99-12.34,59.32-14.31l-1.68-23.79c-23,2.17-45.5,7.6-67.02,16.19Z"/>
  <path class="st1" d="M91.55,65.29l15.99,17.77c15.59-13.23,32.87-24.28,51.42-32.97l-9.38-21.91c-21.02,9.57-40.56,22.11-58.03,37.11Z"/>
  <path class="st1" d="M445.49,416.46l-18.65-14.9c-13.23,15.59-28.52,29.31-45.4,40.86l12.83,20.23c19.15-12.93,36.42-28.43,51.22-46.19Z"/>
  <path class="st1" d="M154.72,459c-18.36-8.98-35.43-20.43-50.73-34.05l-16.29,17.47c17.17,15.4,36.52,28.23,57.24,38.29l9.77-21.71Z"/>
  <path class="st1" d="M503.03,278.87c3.06-32.18-.2-64.65-9.57-95.54l-22.7,7.5c13.03,43.82,12.53,90.51-1.28,134.03l22.5,7.99c5.63-17.47,9.38-35.63,11.05-53.99Z"/>
  <path class="st1" d="M363.67,437.78l-12.04-18.95c-14.9,8.88-30.89,15.79-47.67,20.43l5.33,21.91c19.15-5.33,37.41-13.13,54.38-23.39Z"/>
  <path class="st1" d="M67.87,279.47c-1.68-14.02-1.88-28.23-.49-42.34.3-3.45.69-6.42,1.18-9.48l-22.21-3.95c-.49,3.75-.99,7.5-1.38,11.35-1.48,15.89-1.28,31.98.69,47.87l22.21-3.45Z"/>
  <path class="st1" d="M318.26,38.54c19.64,5.72,38.39,14.21,55.67,25.07l13.32-19.94c-19.54-12.34-40.66-21.81-62.87-28.33l-6.12,23.19Z"/>
  <path class="st1" d="M221.15,503.51l2.27-23.79c-19.25-2.57-38.1-7.7-56.06-15.1l-9.97,21.91c20.33,8.39,41.85,14.11,63.76,16.98Z"/>
  <path class="st1" d="M104.19,406.69l15.5-16.38c-12.24-12.34-22.8-26.16-31.39-41.26l-20.04,10.56c9.77,17.17,21.91,33.06,35.93,47.08Z"/>
  <path class="st1" d="M398.51,51.38l-13.42,19.94c16.68,11.84,31.58,25.96,44.51,41.85l19.15-14.61c-14.51-18.06-31.39-33.85-50.24-47.18Z"/>
  <path class="st1" d="M421.4,382.51c11.84-15.89,21.52-33.26,28.72-51.82l-21.22-7.6c-6.32,16.19-14.8,31.48-25.17,45.4l17.67,14.02Z"/>
  <path class="st0" d="M439.07,201.3l-21.32,7.11c5.92,20.43,7.9,41.85,5.92,62.97-1.09,11.75-3.36,23.39-6.81,34.74l21.22,7.5c4.05-13.03,6.81-26.55,8.09-40.17,2.27-24.28-.2-48.76-7.11-72.15Z"/>
  <path class="st0" d="M226.47,446.46l2.07-22.4c-13.13-1.97-26.06-5.43-38.39-10.36l-9.28,20.43c14.61,5.92,29.91,10.07,45.6,12.34Z"/>
  <path class="st0" d="M381.04,207.81l20.13-6.81c-4.84-12.73-11.25-24.87-19.15-36.12l-16.88,12.83c6.51,9.38,11.84,19.44,15.89,30.1Z"/>
  <path class="st0" d="M259.24,98.75h-11.05l1.48,21.12c11.35-.3,22.6.69,33.75,3.16l5.43-20.43c-6.71-1.48-13.42-2.57-20.23-3.16-3.06-.3-6.22-.49-9.38-.69Z"/>
  <path class="st0" d="M88.59,156.09l19.74,10.96c7.4-12.24,16.29-23.39,26.55-33.36l-15.2-16.78c-12.04,11.65-22.5,24.77-31.09,39.18Z"/>
  <path class="st0" d="M304.05,92.63c13.62,4.15,26.75,10.07,38.89,17.47l12.53-18.75c-14.21-8.78-29.61-15.59-45.6-20.43l-5.82,21.71Z"/>
  <path class="st0" d="M385.08,146.92l17.86-13.62c-10.56-13.03-22.9-24.58-36.42-34.35l-12.53,18.75c11.65,8.39,22.01,18.16,31.09,29.21Z"/>
  <path class="st0" d="M361,334.54l16.58,13.23c8.09-11.05,14.71-23,19.84-35.73l-19.94-7.11c-4.34,10.46-9.87,20.43-16.48,29.61Z"/>
  <path class="st0" d="M142.29,384.38l-15.4,16.38c12.63,11.05,26.55,20.43,41.65,27.83l9.28-20.43c-12.83-6.32-24.77-14.41-35.53-23.79Z"/>
  <path class="st0" d="M121.85,270.98c-.99-9.57-1.09-19.25-.2-28.82.2-1.68.39-3.45.59-5.03l-20.83-3.75c-.3,2.27-.59,4.54-.79,6.81-1.09,11.35-.89,22.7.3,34.05l20.92-3.26Z"/>
  <path class="st0" d="M86.72,288.55l-22.31,3.45c3.16,16.48,8.49,32.57,15.79,47.67l19.94-10.56c-6.22-12.93-10.66-26.55-13.42-40.56Z"/>
  <path class="st0" d="M351.33,395.44l12.14,18.95c13.82-9.47,26.35-20.73,37.21-33.36l-17.67-14.02c-9.28,10.76-19.94,20.33-31.68,28.43Z"/>
  <path class="st0" d="M101.72,178.89l-19.64-10.86c-7.7,14.9-13.32,30.79-16.78,47.18l22.21,3.95c2.96-14.02,7.7-27.54,14.21-40.27Z"/>
  <path class="st0" d="M291.02,386.16l4.93,20.43c13.13-3.75,25.76-9.08,37.6-15.99l-11.45-17.86c-9.77,5.63-20.23,10.17-31.09,13.42Z"/>
  <path class="st0" d="M136.46,323.58l-18.75,9.77c6.81,11.84,15.2,22.7,24.77,32.47l14.61-15.5c-7.9-8.09-14.8-17.07-20.63-26.75Z"/>
  <path class="st0" d="M247.7,425.84c-1.88,0-3.75-.2-5.63-.39l-2.07,22.4c17.67,1.28,35.43.1,52.7-3.45l-5.23-21.91c-13.03,2.76-26.45,3.85-39.78,3.36Z"/>
  <path class="st0" d="M129.85,107.83l15.1,16.68c10.96-9.18,23-16.88,35.93-23l-8.88-20.73c-15.2,7.11-29.31,16.19-42.14,27.04Z"/>
  <path class="st0" d="M184.53,75.46l8.88,20.73c13.32-5.13,27.24-8.59,41.45-10.17l-1.68-22.5c-16.68,1.88-33.06,5.82-48.66,11.94Z"/>
  <path class="st1" d="M241.38,505.19c21.22.69,42.44-1.09,63.36-5.13l-4.93-23c-18.06,3.75-36.52,5.23-55.07,4.54-2.96,0-5.13-.39-8.09-.59l-2.07,24.08c2.27.1,4.54.1,6.81,0v.1Z"/>
</svg>