<?xml version="1.0" encoding="UTF-8"?>
<svg id="Layer_1" xmlns="http://www.w3.org/2000/svg" version="1.1" viewBox="0 0 512 512">
  <!-- Generator: Adobe Illustrator 29.2.1, SVG Export Plug-In . SVG Version: 2.1.0 Build 116)  -->
  <defs>
    <style>
      .st0 {
        fill: #fff;
      }
    </style>
  </defs>
  <path class="st0" d="M157.92,223.5c1.32,1.56,23.31-16.57,26.68-18.6,113.26-68.16,247.75,46.27,198.1,169.39-51.86,128.62-242.09,103.07-262.33-32.62,4.43-71.94-6.3-152.07.02-223.06C129.27,19.14,249.44-32.27,331.82,21.99c60,39.52,65.05,102.63,62.93,169.01,95.78,103.83,50.55,275.92-87.15,313.62C131.51,552.82-.58,354.77,102.72,208.06c3.84-.53,2.09,5.03,2.18,7.69,2.6,73.38-13.8,149.86,40.84,208.79,63.63,68.63,178.53,61.82,232.7-14.76,70.71-99.96.63-238.06-122.22-238.06-31.35,0-55.39,9.37-82.83,23.06v-44.18c41.53-19.42,89.88-23.6,134.22-11.62,16.38,4.42,31.06,12.64,46.9,18.24,5.88-60.7-33.9-118.82-98.29-118.82-50.57,0-98.3,44.14-98.3,95.63v89.46ZM254.63,224.1c-128.01,2.22-124.21,195.98,1.59,195.98s128.16-198.23-1.59-195.98Z"/>
</svg>