<?xml version="1.0" encoding="UTF-8"?>
<svg id="Layer_1" xmlns="http://www.w3.org/2000/svg" version="1.1" viewBox="0 0 512 512">
  <!-- Generator: Adobe Illustrator 29.2.1, SVG Export Plug-In . SVG Version: 2.1.0 Build 116)  -->
  <defs>
    <style>
      .st0 {
        fill: #fff;
      }
    </style>
  </defs>
  <g>
    <path class="st0" d="M508.21,256.08c0-34.1-10.3-59.79-30.92-77.11-20.62-17.4-51.17-26.14-91.67-26.14s-71.05,8.73-91.67,26.14c-9,7.56-15.69,17.01-20.76,27.77h-34.02c-5.49-12.35-13.65-22.93-25.1-31.24-20.7-15.11-49.92-22.66-87.7-22.66-40.5,0-71.05,8.73-91.67,26.14-20.61,17.31-30.92,43.01-30.92,77.11"/>
    <path class="st0" d="M3.79,256.08c0,34.01,10.3,59.7,30.92,77.11,20.62,17.31,51.17,25.97,91.67,25.97,36.06,0,64.31-6.94,84.76-20.81,12.53-8.46,21.56-19.69,27.82-33.09h34.18c5.07,10.81,11.78,20.31,20.81,27.93,20.62,17.31,51.17,25.97,91.67,25.97s71.05-8.66,91.67-25.97c20.62-17.4,30.92-43.1,30.92-77.11"/>
  </g>
  <path d="M126.51,203.21c11.83,0,21.16,3.15,27.98,9.51,1.39,1.28,2.56,2.77,3.69,4.29h192.68v-.17c8.05-9.1,19.66-13.64,34.78-13.64s26.64,4.54,34.61,13.64c8.05,9.1,12.06,22.2,12.06,39.34s-4.01,30.06-12.06,39.07c-7.97,9.01-19.5,13.53-34.61,13.53s-26.72-4.52-34.78-13.53h-193.44c-1.53,1.91-2.79,4.09-4.67,5.6-6.65,5.3-15.43,7.93-26.35,7.93-15.12,0-26.72-4.52-34.78-13.53-7.97-9.01-11.95-22.02-11.95-39.07s3.99-30.24,11.95-39.34c8.05-9.1,19.66-13.64,34.78-13.64h.11Z"/>
</svg>