<?xml version="1.0" encoding="UTF-8"?>
<svg id="Layer_1" xmlns="http://www.w3.org/2000/svg" version="1.1" viewBox="0 0 512 512">
  <!-- Generator: Adobe Illustrator 29.2.1, SVG Export Plug-In . SVG Version: 2.1.0 Build 116)  -->
  <defs>
    <style>
      .st0 {
        fill: #feba11;
      }
    </style>
  </defs>
  <path class="st0" d="M60.2,66.03v227.34c-.69,19.29,2.7,38.51,9.97,56.39,31.7,79.28,132.02,135.34,210.32,165.77v-39.84c-98.24-38.46-145.84-88.57-165.12-124.66-17.1-31.94-15.06-56.34-15.06-56.34V88.89l180.19-52.04V3.53L76.2,61.78l-16,4.25Z"/>
  <path class="st0" d="M286.37,464.08c12.54-6.15,24.2-12.36,35-18.63l1.2-106.31V65.92l-36.22-11.01.02,409.18Z"/>
  <path class="st0" d="M356.04,417.68c13.94-7.03,36.22-28.08,36.22-28.08V81.26l-36.22-11v347.42Z"/>
  <path class="st0" d="M425.22,93.7l1.03,159.38v101.91l1.04-1.14c2.28-2.98,4.4-5.89,6.37-8.75,25.53-36.83,26.78-62.84,26.78-62.84v-27.24l1.04-150.26-36.26-11.06Z"/>
</svg>