<?xml version="1.0" encoding="UTF-8"?>
<svg id="Layer_1" xmlns="http://www.w3.org/2000/svg" version="1.1" viewBox="0 0 512 512">
  <!-- Generator: Adobe Illustrator 29.2.1, SVG Export Plug-In . SVG Version: 2.1.0 Build 116)  -->
  <defs>
    <style>
      .st0 {
        fill: #fff;
      }
    </style>
  </defs>
  <path class="st0" d="M256.11,10.56v98.7c-61.45-.77-118.1,39.45-138.6,97.07-23.71,66.61,3.73,142.42,65.02,177.16,99.29,56.28,220.03-14.75,220.31-127.49h98.68c1.01,116.6-83.37,218.36-197.12,241.14-8.28,1.66-16.78,2.13-24.91,4.31h-46.74c-10.37-2.37-21-3.28-31.41-5.6-85.86-19.11-156.66-86.45-181.17-170.73l-9.46-47.03c.8-14.4-1.08-29.89,0-44.15C19.33,119.68,117.78,20.25,231.97,11.75l2.07-1.2h22.07Z"/>
  <path class="st0" d="M461.26,10.56c20.92,5.4,38.54,22.55,40.23,44.82,3.33,43.98-48.25,70.93-81.79,41.55-31.72-27.78-16.19-77.2,23.39-86.37h18.18Z"/>
</svg>