<?xml version="1.0" encoding="UTF-8"?>
<svg id="Layer_1" xmlns="http://www.w3.org/2000/svg" version="1.1" viewBox="0 0 512 512">
  <!-- Generator: Adobe Illustrator 29.2.1, SVG Export Plug-In . SVG Version: 2.1.0 Build 116)  -->
  <defs>
    <style>
      .st0 {
        fill: #fff;
      }
    </style>
  </defs>
  <path class="st0" d="M139.6,288.1H11.21l212.7,212.7c12.54,12.53,32.86,12.53,45.39,0l222.1-222.1c12.53-12.54,12.53-32.86,0-45.39l-78.78-78.78c-11.34-11.34-29.3-12.57-42.08-2.89l-95.4,72.27,74.47-91.66c10.37-12.77,9.42-31.31-2.21-42.94L269.3,11.21c-12.54-12.54-32.86-12.54-45.39,0L11.21,223.9h128.4l107-107-66.2,117.35c-7.22,12.79-4.83,28.85,5.79,38.99l43.54,41.56c10.05,9.6,25.14,11.63,37.38,5.04l118.57-63.85-139.09,139.09-107-107Z"/>
</svg>