<?xml version="1.0" encoding="UTF-8"?>
<svg id="Layer_1" xmlns="http://www.w3.org/2000/svg" version="1.1" viewBox="0 0 512 512">
  <!-- Generator: Adobe Illustrator 29.2.1, SVG Export Plug-In . SVG Version: 2.1.0 Build 116)  -->
  <defs>
    <style>
      .st0 {
        fill: #fff;
      }
    </style>
  </defs>
  <path class="st0" d="M262.25,96.36l37.84-22.03V21.7L262.25-.34v96.7Z"/>
  <path class="st0" d="M122.87,325.4v-147.96l126.81-73.66V-.34L40.26,121.56c-1.95,1.14-3.57,2.78-4.7,4.75-1.13,1.97-1.72,4.2-1.73,6.48v244.81l89.04-52.2Z"/>
  <path class="st0" d="M382.34,335.84l-126.59,73.66-125.81-73.23-89.39,52.06,209.14,121.61c1.96,1.13,4.17,1.73,6.43,1.73,2.26.01,4.47-.59,6.43-1.73l209.49-121.97-89.68-52.13Z"/>
  <path class="st0" d="M471.67,121.56l-83.04-48.31v52.63l-88.97,51.91,89.25,51.91v94.83l89.25,52.35v-244.09c-.01-2.28-.62-4.52-1.76-6.49-1.14-1.97-2.78-3.61-4.74-4.74Z"/>
  <path class="st0" d="M211.42,229.08l.07,103.11,86.82-50.55v-103.18l-86.89,50.62Z"/>
</svg>