<?xml version="1.0" encoding="UTF-8"?>
<svg id="Layer_1" xmlns="http://www.w3.org/2000/svg" version="1.1" viewBox="0 0 512 512">
  <!-- Generator: Adobe Illustrator 29.2.1, SVG Export Plug-In . SVG Version: 2.1.0 Build 116)  -->
  <defs>
    <style>
      .st0 {
        fill: #fafbfe;
      }

      .st1 {
        fill: #317cf8;
      }
    </style>
  </defs>
  <path class="st1" d="M204.11,10.92c108.75-.86,262.69,98.33,296.59,203.52,41.13,127.65-128.44,253.91-237.04,279.5C-59.49,570.07-77.97,13.15,204.11,10.92ZM165.69,239.6c2.47-18.16,3.31-36.67,6.43-54.75,1.02-5.91,1.92-19.9,6.49-22.65,5.65-3.4,45.31-9.91,54.67-11.38,24.32-3.82,52.55-7.34,77.06-8.41,18.89-.83,49.39,3.2,66.08.03,12.04-2.29,9.35-15.41-.81-18.52-4.06-1.24-15.56-2.37-20.53-2.78-38.32-3.17-80.24-2.64-118.45,0-8.68.6-47.35,7.5-51.5,4.83s-.54-7.72-12.61-6.89c-12.13.83-11.68,9.86-17.86,13.33s-17.22,2.38-24.63,6.45c-23.82,13.1-6.34,42.89,18.19,32.78l-9.62,66.68c-22.43,7.21-28.36,31.12-3.85,39.42-.7,44.53,3.46,121.25,61.09,126.97,56.74,5.63,134.58-29.08,163.8-78.97,2.73-4.66,6.48-10.39,2.45-15.38-9.71-8.11-10.52,1.55-15.62,6.09-33.49,29.8-78.99,66.24-127.08,62.81-49.92-3.56-52.78-66.15-53.57-104.58,33.74-4.85,67.98-6.13,101.86-9.83,14.86-1.62,105.81-11.02,111.24-16.01,7.27-6.69,4.4-17.93-6.42-18.87l-91.12,7.78-115.66,1.85Z"/>
  <path class="st0" d="M165.69,239.6l115.66-1.85,91.12-7.78c10.82.94,13.69,12.18,6.42,18.87-5.42,4.99-96.38,14.39-111.24,16.01-33.88,3.69-68.12,4.97-101.86,9.83.8,38.43,3.65,101.02,53.57,104.58,48.09,3.43,93.59-33.02,127.08-62.81,5.1-4.54,5.91-14.2,15.62-6.09,4.03,4.99.28,10.72-2.45,15.38-29.22,49.9-107.06,84.61-163.8,78.97-57.63-5.72-61.79-82.44-61.09-126.97-24.5-8.3-18.58-32.2,3.85-39.42l9.62-66.68c-24.53,10.11-42.01-19.68-18.19-32.78,7.41-4.08,18.43-2.97,24.63-6.45s5.73-12.5,17.86-13.33c12.07-.83,8.39,4.17,12.61,6.89s42.82-4.24,51.5-4.83c38.21-2.64,80.13-3.17,118.45,0,4.97.41,16.47,1.54,20.53,2.78,10.16,3.11,12.85,16.23.81,18.52-16.68,3.17-47.19-.86-66.08-.03-24.51,1.07-52.73,4.59-77.06,8.41-9.36,1.47-49.02,7.98-54.67,11.38-4.56,2.75-5.47,16.74-6.49,22.65-3.12,18.09-3.96,36.6-6.43,54.75Z"/>
</svg>