<?xml version="1.0" encoding="UTF-8"?>
<svg id="Layer_1" xmlns="http://www.w3.org/2000/svg" version="1.1" viewBox="0 0 512 512">
  <!-- Generator: Adobe Illustrator 29.2.1, SVG Export Plug-In . SVG Version: 2.1.0 Build 116)  -->
  <defs>
    <style>
      .st0 {
        fill: #fff;
      }
    </style>
  </defs>
  <line class="st0" x1="72.7" y1="241.13" x2="43.04" y2="241.13"/>
  <line class="st0" x1="43.04" y1="241.13" x2="72.7" y2="241.13"/>
  <g>
    <path class="st0" d="M101.48,271.79h25.66v55.3c-5.64,3.68-11.27,7.16-17.58,9.62C56.55,357.38-3.67,326.81.18,265.82c3.55-56.31,68.97-80.65,115.31-56.48,1.17.61,5.46,2.91,6.14,3.6.44.45.78.77.59,1.47l-11.43,20.48c-.93.6-4.9-2.21-6.11-2.77-35.61-16.54-79.14.24-76.2,43.91,2.43,36.06,42.94,51.89,73.01,36.7v-40.92Z"/>
    <path class="st0" d="M407.6,224.9h-26.1v92.9c16.12-.73,32.97,2.3,48.34-3.64,9.3-3.59,17.81-10.65,21.45-20.13,3.1-8.09,2.25-17.23,2.76-25.77h26.1c1.1,18.87-.78,36.58-13.49,51.32-27.95,32.41-75.21,21.47-113.03,23.44v-143.33c.32-.12.53.44.66.44h52.2c.07,0,1.11-.76,1.11.22v24.55Z"/>
    <path class="st0" d="M321.34,343.02h-27.65s-.66-.62-.66-.66v-142h28.31v142.67Z"/>
    <path class="st0" d="M480.15,168.72v30.75s.62.66.66.66h31.19v24.77h-31.85v30.97h-26.1v-30.97h-31.85v-24.77h31.19s.66-.62.66-.66v-30.75h26.1Z"/>
    <path class="st0" d="M235.97,295.9c15.2-7.29,25.81-20.64,27.8-37.66,3.85-32.78-18.65-55.96-50.58-58.13-19.09.36-38.21-.3-57.29-.24-.37,0-.9.16-.9.48v142.67h27.65s.66-.62.66-.66v-40.48h24.11l28.31,41.14h32.96l-32.73-47.11ZM222.69,272.91c-11.68,6.62-26.48,4.12-39.38,4.64v-53.09c12.87.59,27.78-2.16,39.38,4.64,16.24,9.51,16.64,34.38,0,43.81Z"/>
  </g>
</svg>