<?xml version="1.0" encoding="UTF-8"?>
<svg id="Layer_1" xmlns="http://www.w3.org/2000/svg" version="1.1" viewBox="0 0 512 512">
  <!-- Generator: Adobe Illustrator 29.2.1, SVG Export Plug-In . SVG Version: 2.1.0 Build 116)  -->
  <defs>
    <style>
      .st0 {
        fill: #fff;
      }
    </style>
  </defs>
  <path class="st0" d="M39.06,48.92v120.77c.8.19.79-.29,1.16-.69,17.75-19.47,35.56-38.91,53.46-58.25h27l-59.33,62.39,63.86,66.63h-28.65c-18.92-20.23-37.67-40.66-56.34-61.14-.37-.4-.36-.88-1.16-.69v154.57l54.2-58.94h27.41l-59.23,62.04,63.77,66.57h-29.06l-57.09-61.83v61.83h-20.61V48.92h20.61Z"/>
  <path class="st0" d="M395.61,133.43l5.37-7.61c17.65-23.17,57.63-24.38,76.87-2.7,23.05,25.98,20.12,81.59-4.94,105.54-18.3,17.49-52.94,20.13-70.91.82l-6.38-8.25v77.9h-21.02V110.75h21.02v22.67ZM432.63,125.3c-21.13,1.36-35.64,18.14-37.03,38.81-.63,9.4-.87,27.78,1.96,36.41,9.64,29.36,49.84,33.73,65.99,7.22,16.64-27.32,11.55-85.18-30.92-82.44Z"/>
  <path class="st0" d="M250.11,343.23h-91.1c.64,9.46,2.14,18.71,7.09,26.92,13.88,23.03,47.24,21.12,67.65,8.45l7.29-4.87v19.79c-8.51,5.3-17.57,8.98-27.53,10.6-44.49,7.2-73.76-14.36-75.95-59.84-1.11-23.07,4.94-45.16,22.68-60.62,21.9-19.07,60.52-18.62,78.25,5.85,11.33,15.63,12.14,35.01,11.62,53.72ZM228.67,325.51c.5-18.64-8.77-36.23-29.04-37.53-22.93-1.47-37.31,16.39-40.21,37.53h69.25Z"/>
  <path class="st0" d="M364.29,180.42h-91.1c.41,4.14.62,8.29,1.43,12.38,7.89,39.85,54.29,39.45,80.6,18.12v19.58c-14.26,10.34-33.97,13.32-51.31,12.16-45.63-3.06-59.81-52.06-49.14-90.36,9.52-34.18,45.1-54.52,79.02-40.51,26.9,11.12,31.97,42.64,30.51,68.62ZM342.85,162.69c.33-17.33-7.64-34.3-26.22-37.05-23.49-3.48-40.29,15.17-43.02,37.05h69.25Z"/>
  <path class="st0" d="M250.11,180.42h-91.1c.57,4.89.81,9.81,2.01,14.69,9.33,37.86,54.73,36.48,80.02,15.82v19.58c-7.57,5.57-17.04,9.16-26.3,10.79-39.92,7.06-70.7-9.02-76.27-50.83-3.45-25.88,2.04-53.72,23.24-70.62,20.84-16.61,55.99-17.1,74.19,3.69,13.6,15.53,14.87,37.14,14.21,56.89ZM228.67,162.69c.47-17.35-7.63-34.3-26.22-37.05-23.65-3.5-40.04,15.18-43.02,37.05h69.25Z"/>
  <path class="st0" d="M264.33,273.57l38.12,108.82,3.29-11.75,36.07-97.06h21.23l-60.81,153.74c-7.19,16.04-18.4,32.59-37.2,35.35-6.51.95-13.07.14-19.47-1.12v-18.96c16.37,5.93,27.55.86,34.98-14.28,4.11-8.38,7.17-17.77,11.01-26.32l-50.11-128.4h22.88Z"/>
</svg>