<?xml version="1.0" encoding="UTF-8"?>
<svg id="Layer_1" xmlns="http://www.w3.org/2000/svg" version="1.1" viewBox="0 0 512 512">
  <!-- Generator: Adobe Illustrator 29.2.1, SVG Export Plug-In . SVG Version: 2.1.0 Build 116)  -->
  <defs>
    <style>
      .st0 {
        fill: #fff;
      }
    </style>
  </defs>
  <polygon class="st0" points="192.97 0 -.5 0 -.5 125.06 30.5 125.06 30.5 32.6 32.1 31 192.97 31 192.97 0"/>
  <polygon class="st0" points="511.5 0 318.03 0 318.03 31 478.9 31 480.5 32.6 480.5 125.06 511.5 125.06 511.5 0"/>
  <polygon class="st0" points="223.97 159.27 192.97 159.27 192.97 352.73 318.03 352.73 318.03 321.74 225.57 321.74 223.97 320.13 223.97 159.27"/>
  <polygon class="st0" points="30.5 386.94 -.5 386.94 -.5 512 192.97 512 192.97 481 32.1 481 30.5 479.4 30.5 386.94"/>
  <polygon class="st0" points="511.5 386.94 480.5 386.94 480.5 479.4 478.9 481 318.03 481 318.03 512 511.5 512 511.5 386.94"/>
  <polygon class="st0" points="192.97 0 192.97 31 32.1 31 30.5 32.6 30.5 125.06 -.5 125.06 -.5 0 192.97 0"/>
  <polygon class="st0" points="511.5 0 511.5 125.06 480.5 125.06 480.5 32.6 478.9 31 318.03 31 318.03 0 511.5 0"/>
  <g>
    <polygon class="st0" points="223.97 159.27 223.97 320.13 225.57 321.74 318.03 321.74 318.03 352.73 192.97 352.73 192.97 159.27 223.97 159.27"/>
    <g>
      <polygon class="st0" points="30.5 386.94 30.5 479.4 32.1 481 192.97 481 192.97 512 -.5 512 -.5 386.94 30.5 386.94"/>
      <polygon class="st0" points="511.5 386.94 511.5 512 318.03 512 318.03 481 478.9 481 480.5 479.4 480.5 386.94 511.5 386.94"/>
    </g>
  </g>
</svg>