<?xml version="1.0" encoding="UTF-8"?>
<svg id="Layer_1" xmlns="http://www.w3.org/2000/svg" version="1.1" viewBox="0 0 512 512">
  <!-- Generator: Adobe Illustrator 29.2.1, SVG Export Plug-In . SVG Version: 2.1.0 Build 116)  -->
  <defs>
    <style>
      .st0 {
        fill: #fff;
      }

      .st1 {
        fill: #28a049;
      }
    </style>
  </defs>
  <polyline class="st0" points="108 0 108 116.79 142.92 116.79 142.92 0 111.17 0"/>
  <path class="st0" d="M166.05,0v117.02l73.78,1.81c77.11,1.81,98.88,104.02.3,117.62l-74.08-.15v13.61h190.2c80.43-52.46,42.08-117.03,9.07-140.15-22.34-15.65-67.43-32.96-120.95-31.04l-9.37.06-32.21-.47V0h-36.74Z"/>
  <polyline class="st1" points="108 512 108 395.21 142.92 395.21 142.92 512 111.17 512"/>
  <path class="st1" d="M166.05,512v-117.02l73.78-1.81c77.11-1.81,98.88-104.02.3-117.62l-74.08.15v-13.61h190.2c80.43,52.46,42.08,117.03,9.07,140.15-22.34,15.65-67.43,32.96-120.95,31.04l-9.37-.06-32.21.47v78.32h-36.74Z"/>
</svg>