<?xml version="1.0" encoding="UTF-8"?>
<svg id="Layer_1" xmlns="http://www.w3.org/2000/svg" version="1.1" viewBox="0 0 512 512">
  <!-- Generator: Adobe Illustrator 29.2.1, SVG Export Plug-In . SVG Version: 2.1.0 Build 116)  -->
  <defs>
    <style>
      .st0 {
        fill: #efefef;
      }
    </style>
  </defs>
  <path class="st0" d="M179.16,229.53l4.84,6.83,5.12-6.83,44.67-58.32,2.56-3.41-2.28-3.7-40.69-60.31v-.28l-7.68-10.53L129.94,8.48l-1.71-2.84H14.13l7.4,9.96,157.63,213.94Z"/>
  <path class="st0" d="M492.46,2.23h-27.04c-47.23,0-86.5,9.96-124.34,57.75L20.69,497.25l-7.4,9.96h109.83l1.99-2.56,84.79-117.5,42.11-57.75,83.37,114.37c33.57,46.94,71.42,66,130.03,66h33.29v-90.47h-6.25c-43.54,0-61.75-3.13-76.55-21.34l-106.98-146.8,81.09-110.38,8.82-12.52c23.05-29.3,37.84-34.99,93.32-35.28h6.27V2.23h-5.97Z"/>
</svg>