<?xml version="1.0" encoding="UTF-8"?>
<svg id="Layer_1" xmlns="http://www.w3.org/2000/svg" version="1.1" viewBox="0 0 512 512">
  <!-- Generator: Adobe Illustrator 29.2.1, SVG Export Plug-In . SVG Version: 2.1.0 Build 116)  -->
  <defs>
    <style>
      .st0 {
        fill: #efefef;
        fill-rule: evenodd;
      }
    </style>
  </defs>
  <path class="st0" d="M362.73,2.22h-213.52c-33.69,0-50.51,0-63.38,6.56-11.32,5.75-20.52,14.95-26.27,26.27-6.56,12.89-6.56,29.73-6.56,63.4v35.74h405.89v-35.74c0-33.69,0-50.51-6.56-63.4-5.75-11.32-14.95-20.52-26.27-26.27-12.87-6.56-29.69-6.56-63.36-6.56h.02Z"/>
  <path class="st0" d="M323.69,245.84h135.31v167.69c0,33.69,0,50.51-6.56,63.4-5.75,11.32-14.95,20.52-26.27,26.27-12.89,6.56-29.71,6.56-63.38,6.56h-39.08v-245.18l-.02-18.74Z"/>
  <path class="st0" d="M53.02,245.84h135.27v263.94h-39.06c-33.69,0-50.51,0-63.38-6.56-11.32-5.76-20.52-14.95-26.27-26.27-6.56-12.89-6.56-29.73-6.56-63.42v-167.69Z"/>
</svg>