<?xml version="1.0" encoding="UTF-8"?>
<svg id="Layer_1" xmlns="http://www.w3.org/2000/svg" version="1.1" xmlns:xlink="http://www.w3.org/1999/xlink" viewBox="0 0 512 512">
  <!-- Generator: Adobe Illustrator 29.2.1, SVG Export Plug-In . SVG Version: 2.1.0 Build 116)  -->
  <defs>
    <style>
      .st0 {
        fill: none;
      }

      .st1 {
        fill: url(#linear-gradient);
        fill-rule: evenodd;
      }
    </style>
    <linearGradient id="linear-gradient" x1="256" y1="14" x2="256" y2="498" gradientTransform="translate(0 512) scale(1 -1)" gradientUnits="userSpaceOnUse">
      <stop offset=".26" stop-color="#d94498"/>
      <stop offset=".73" stop-color="#5dc8dc"/>
    </linearGradient>
  </defs>
  <polyline class="st0" points="-183.86 773.07 -375.86 773.07 -375.86 725.07 -183.86 725.07"/>
  <line class="st0" x1="-201.14" y1="548.37" x2="-201.14" y2="480.37"/>
  <path class="st1" d="M452.3,310.11l-.09.5-.3,1.94-1.36-1.41-.5-.5c-17.8-16.76-23.32-21.33-48.53-37.56,2.92,43.55.18,86.71-7.91,124.98l-.27,1.29-1.15-.62c-21.84-11.88-36.48-17.99-74.29-28.17l-.5,2.67-1.21-2.47c-41.29,22.71-60.66,36.71-79.73,51.26,6.67,25.91,11.75,40,25.41,59.39l2.54,3.58-3.81-2.17c-25.56-14.61-43.36-25.09-68.12-40.91v.06l-.5-.35c1.39,15.87,3.57,33.72,21.93,52.64l3.6,3.73-4.72-2.17c-26.15-11.97-44.19-20.83-73.79-42.73l-.65.21-.06-.12c-9.53,2.05-24.79,5.37-36.39,9.13l-.74.23-.41-.65c-11.48-18.55-16.77-30.17-19.63-53.73-14.91-15.08-29.02-29.43-43.57-53.03-1,.32-2.04.53-3.16.53-.35,0-.68,0-1.03-.06-2.51,12.21-1.33,20.22,2.15,32.54l-1.83.67c-8.94-18.55-14.76-33.36-18.83-48.01l-.06-.21.47-.15-.47.12-.06-.21c-.15-.59-.32-1.14-.47-1.73l-.35-1.32c-1.83-6.98-3.36-14.38-4.72-22.65-1.06-6.46-2.01-13.2-2.8-18.96l-.59-7.48-.24-4.52-.09-1.61v-.62l-.06-1.35.09-1.5c.06-2.05.21-4.14.5-6.19,1-8.86,3.87-21.36,17.06-39.73-2.27-21.48-3.07-36.45,4.13-61.27l.15-.5.06-.21.09-.35.12-.41.15-.47.18-.06c6.43-14.2,11.63-23.97,18.48-34.71,2.69-4.34,5.7-8.86,9.21-13.85l2.95-4.34.09-.18.06-.12.09-.09.27-.26.06.06,2.1-2.05c9.45-9.65,21.25-20.92,50.3-39.59,8.94-13.62,16.09-24.39,37.99-36.53l.56-.29,2.57-1.14c2.45-1.14,4.84-2.23,7.05-3.17l.74-.32.29-.26.71-.44.74-.32.09-.09h.18l.47-.26c2.8-1.23,3.95-1.73,6.55-2.76,2.57-1.06,3.6-1.44,6.38-2.49,2.39-.88,3.34-1.23,5.58-2,2.27-.82,3.13-1.09,5.52-1.88l1.98-.65.33-.09c.89-.26,1.89-.38,3.13-.38.86,0,1.8.06,2.89.18.24,0,.47.06.74.09,3.75-2.23,6.64-3.61,9.39-4.4l.41-.09.83-.21v.15h.03v-.15c1.06-.26,2.36-.56,3.66-.85,1.27-.29,2.54-.59,3.63-.82h.06l.27-.06,1.06-.06h.27l2.6-1.03-1.48.97h.53c.44,0,.89,0,1.33.03l-.06,1.12.12-.62v.47l.09-.29v-.67h.65c3.81.21,8.29,1.2,17.68,5.25l.41-.53.71.82c5.9-.15,12.57-.32,20.37-.32,13.19,0,26.3.5,39.91,1.5l-.38-.41,2.83.56.47.09.74.06,2.48.21-.47.38c7.82,1.88,17.86,4.43,26.48,6.75l.09-.26,1.09.47.32.18c58.47,13.35,86.37,30.78,103.04,41.2l.15.09.12.15c20.87,27.82,16.71,52.56,8.41,84.34,17.27,13.56,43.04,33.95,62.52,66.38l.24.41-.18.44c-10.3,26-18.06,41.2-54.08,87.39h-.03ZM440.23,157.4c-3.19-.09-6.46-.12-9.8-.12-19.84,0-42.3,1.44-66.8,4.28v.53c0,2.99-1.39,5.63-3.57,7.37,12.84,24.36,26.48,52.26,40.08,96.6,20.51-43.66,31.35-70.31,40.05-108.63l.03-.03ZM185.41,370.68c-2.48-.73-4.55-2.41-5.81-4.58-16.35,7.42-28.81,13.5-43.18,21.8.24.82.35,1.7.35,2.61,0,2.23-.74,4.25-1.98,5.93,18.48,14.94,27.04,21.36,53.4,39.47-3.81-19.6-5.73-33.54-2.77-65.2v-.03ZM328.33,266.65c-18.86-17.28-30.96-27.64-59.65-50.35-1.18.79-2.51,1.35-3.98,1.61l4.22,26.29c2.21,13.85,4.46,27.7,6.7,41.55h.32c3.81,0,7.11,2.26,8.59,5.49,12.66-5.25,24.38-10.04,42.89-16.87-.24-.88-.38-1.82-.38-2.76,0-1.79.44-3.46,1.24-4.93l.06-.03ZM347.9,273.34c-.86,4.9-5.14,8.66-10.33,8.66-.35,0-.71,0-1.03-.06-12.55,57.96-13.52,62.53-17.15,80.87,20.25-26.12,30.79-38.79,77.04-91.08-16.06.12-27.72.26-48.53,1.61ZM397.64,268.59h.21c-7.41-23.62-16.77-52.94-40.35-97.69-.94.35-1.98.56-3.04.59-2.6,24.41-5.25,45.45-13.79,90.12,3.87,1.17,6.76,4.52,7.29,8.6,15.94-1.03,28.34-1.64,49.68-1.64v.03ZM337.57,261.16h.06c5.93-31.25,9.98-54.29,13.76-90.06-2.36-.7-4.31-2.32-5.52-4.4-19.54,9.33-42.83,20.75-73.41,37.8.41,1.09.65,2.26.65,3.49,0,2.32-.8,4.43-2.1,6.13,23.97,19.07,39.23,31.66,59.24,50.03,1.89-1.85,4.49-2.99,7.35-2.99h-.03ZM273.22,165.94c-2.48,10.59-5.05,21.51-7.53,32.37,2.1.59,3.93,1.82,5.22,3.46,19.69-10.92,42.48-23.09,73.88-38.03-.09-.53-.15-1.09-.15-1.67,0-1.94.59-3.73,1.59-5.22-16.29-13-29.87-23.45-55.08-40.08-1.74,1.82-4.16,2.96-6.91,2.96h-.38c-3.45,15.46-7.11,31.1-10.66,46.25v-.03ZM280.9,119.08c-1.89-.7-3.48-2-4.55-3.64-59.03,24.3-103.99,46.89-149.3,74.97.38.91.59,1.91.65,2.93,41.71,2.29,77.81,5.25,125.36,12.47.97-4.4,4.84-7.69,9.5-7.86,2.1-8.98,4.19-17.99,6.35-26.97,4.01-16.99,8.18-34.51,11.98-51.88v-.03ZM266.26,246.93c-1.56-9.65-3.13-19.31-4.69-28.96-2.83-.38-5.28-1.94-6.88-4.14-26.59,12.82-88.67,43.25-140.53,82.69.35.7.65,1.47.83,2.26,40.32-3.52,72.02-5.02,105.64-5.02,14.32,0,29.4.29,45.9.85.21-3.81,2.66-7.01,6.08-8.3-2.13-13.15-4.25-26.26-6.38-39.41l.03.03ZM266.91,297.79c-16.97-.59-31.64-.88-45.69-.88-33.3,0-66.06,1.56-105.97,5.05-.15,1.41-.56,2.73-1.24,3.9,18.21,14.14,29.9,22.65,67.12,48.24,1.83-1.88,4.4-3.05,7.23-3.05,2.3,0,4.46.79,6.14,2.08,21.1-17.55,38.08-30.34,73.35-53.26-.38-.65-.71-1.35-.92-2.08h-.03ZM135.14,385.09c12.57-7.25,24.23-13.35,43.3-21.95-.15-.67-.21-1.35-.21-2.05,0-1.67.41-3.23,1.15-4.61-27.66-18.96-49.09-33.86-67.33-48.18-1.09,1-2.39,1.73-3.84,2.14,2.95,23.45,6.14,42.23,16.12,70.43.77-.21,1.59-.29,2.42-.29,3.51,0,6.61,1.82,8.41,4.55l-.03-.03ZM112.39,294.09c25.18-18.93,66.91-47.68,140.86-83.1-.21-.65-.33-1.32-.41-2-29.93-4.49-67-9.42-125.51-12.56-1.12,3.84-4.69,6.66-8.91,6.66-.32,0-.62,0-.94-.06-3.72,17.64-9.95,49.59-10.39,88.33,2.04.35,3.9,1.32,5.28,2.73h.03ZM114.6,202.27c-1.8-.82-3.31-2.17-4.25-3.87-28.51,9.24-60.16,20.57-84.15,35.18,12.43,19.13,29.75,37.09,71.49,61.36,1.59-2,3.93-3.35,6.61-3.64.53-24.85,2.33-52.91,10.33-89l-.03-.03ZM109.32,195.49c-.09-.53-.15-1.06-.15-1.61,0-.26,0-.53.03-.82-22.79-7.89-39.2-14.06-51.45-22.04-1.74,1.79-4.16,2.88-6.85,2.88-.86,0-1.71-.12-2.51-.35-10.36,21.01-14.67,31.49-22.08,56.55,11.54-6.81,32.62-18.49,82.94-34.63l.06.03ZM59.58,168.32c9.83,6.51,20.13,11.18,50.41,21.69,1.48-3.17,4.69-5.37,8.41-5.37.86,0,1.65.12,2.42.32,12.37-25.12,27.57-53.96,60.57-101.71-.38-.44-.74-.94-1.03-1.44-66.71,33.78-99.12,58.22-121.34,77.73.86,1.44,1.39,3.11,1.39,4.9,0,1.38-.32,2.7-.86,3.9l.03-.03ZM123.45,186.1c.77.5,1.45,1.09,2.01,1.76,21.1-13.12,67.68-41.58,149.62-75.15-.21-.79-.32-1.58-.32-2.44,0-.62.06-1.2.18-1.76-26.65-10.09-40.17-14.73-78.37-27.35-1.45,3.08-4.6,5.22-8.26,5.22-1.77,0-3.39-.5-4.81-1.38-18.95,27.61-39.14,58.37-60.07,101.12l.03-.03ZM197.36,78.47c47.11,15.52,68.86,23.39,78.63,27.14.65-1.14,1.53-2.11,2.6-2.91-7.73-14.88-14.91-28.14-25.97-45.31l-.27.18-.21-.47c-18.65,5.43-32.97,9.71-55.05,17.58.24.82.38,1.67.38,2.58,0,.41-.03.79-.09,1.17l-.03.03ZM281.28,101.3c.94-.32,1.95-.5,3.01-.5,1.3,0,2.54.26,3.66.73,8.47-14.23,14.17-24.18,19.16-34.42-2.27-1.67-3.78-4.37-3.81-7.39-15.91-1.41-26.06-2.14-47.76-2.88,7.47,11.74,14.76,23.36,25.74,44.43v.03ZM290.55,103.17c1.98,1.73,3.25,4.26,3.25,7.07,0,1.5-.35,2.88-.97,4.14,16.94,11.24,34.15,23.01,55.52,40.23.59-.47,1.24-.85,1.95-1.17-7.85-27.76-16.65-55.28-34-85.19-1.09.44-2.3.7-3.57.7-1.03,0-2.04-.18-2.95-.47-3.95,8.16-8.32,16.46-19.19,34.68h-.03ZM353.24,152.68c.3-.03.62-.06.92-.06,3.98,0,7.38,2.44,8.8,5.9,24.59-2.85,47.17-4.28,67.09-4.28,2.92,0,5.81.03,8.62.09-18.92-19.46-53.22-53.79-118.28-89.32-.5.7-1.09,1.35-1.8,1.91,10.66,18.31,22.08,40.76,34.62,85.77h.03ZM391.62,394.89c7.44-37.21,9.86-78.97,7.05-121.05-43.69,49.3-55.96,63.62-79.34,93.9,32.2,8.72,48.47,14.32,72.29,27.11v.03ZM333.59,281.21c-1.98-.82-3.66-2.2-4.81-3.96-14.67,5.43-25.97,9.74-43.39,16.99,0,.29.06.59.06.88,0,3.17-1.59,5.96-3.98,7.66,11.93,19.6,22.91,38.09,34.74,61.39,4.13-21.22,4.84-24.53,17.39-82.96ZM314.84,368.01c-10.15-19.57-17.18-33.04-36.13-63.88-.86.26-1.77.41-2.72.41-.68,0-1.33-.09-1.98-.21-16.59,36.56-31.7,72.95-37.28,113.56,28.13-21.57,53.01-35.95,78.1-49.89ZM271.1,303.16c-.44-.26-.86-.56-1.24-.88-32.85,21.36-49.8,33.63-73.23,53.11,1.12,1.61,1.77,3.58,1.77,5.69,0,2.82-1.15,5.34-3.04,7.16,14.23,19.46,20.9,28.05,38.46,49.65,3.96-26.2,10.24-55.43,37.25-114.71l.03-.03ZM256.31,477.58c-8.5-13.23-15.47-25.38-22.46-54.37-13.02,4.55-25.33,9.33-36.6,14.23-1.39.59-2.72,1.2-4.07,1.79,17.71,11.3,32.41,20.63,63.14,38.35ZM195.77,434.79c11.31-4.93,23.64-9.71,36.72-14.29-17.65-21.6-24.26-29.9-39.43-50.56-1.36.7-2.92,1.12-4.55,1.14-2.21,24.33-2.24,41.17,2.8,65.7,1.48-.67,2.98-1.32,4.52-2h-.06ZM207.93,491.19c-8.53-10.42-17.92-24-19.07-50.5-13.16,2.85-29.28,6.37-46.72,11.41l.24.15-.27.06c18.83,13.44,35.72,25.27,65.85,38.88h-.03ZM139.6,449.79c15.88-4.49,26.45-7.22,47.23-11.65-25.92-17.72-34.21-23.8-53.96-39.73-1.21.94-2.66,1.61-4.22,1.91.8,15.76,2.51,30.69,10.95,49.47ZM101.73,459.18c5.52-1.67,15.32-4.55,33.83-8.45-20.6-13.88-30.14-20.45-51.36-39.7,2.36,15.52,4.87,28.46,17.53,48.15ZM136.18,448.21c-5.14-13.2-9.74-26.38-10.63-47.8-3.07-.35-5.7-2.08-7.29-4.55-10.92,3.23-21.9,6.66-34.3,11.53,17.47,15.7,26.18,23.42,52.22,40.82ZM83.78,404.16c8.53-3.23,17.65-6.6,33.24-11.18-.21-.79-.32-1.61-.32-2.46,0-3.73,2.07-6.98,5.11-8.69-7.97-22.6-12.69-40.38-16.53-71.01-.77,0-1.51-.12-2.21-.29-11.98,27.26-21.96,55.4-19.27,93.64ZM81.21,404.83c-1.86-29.43.92-54.2,19.04-95.46-1.06-.65-1.98-1.5-2.75-2.49-23.7,11.65-40.29,21.1-54.69,33.86.89,1.47,1.42,3.2,1.42,5.02,0,3.4-1.74,6.4-4.37,8.16,9.53,14.97,21.55,32.19,41.35,50.91ZM32.42,336.14c.62-.12,1.27-.18,1.92-.18,2.51,0,4.78.94,6.52,2.44,12.99-11.47,28.81-21.3,55.2-34.3-.32-.97-.5-2-.5-3.08,0-1.23.24-2.41.65-3.49-31.67-18.66-56.02-36.5-71.11-60.45-2.04,25.62-3.81,54.87,7.32,99.04v.03ZM11.11,314.31c1.39,8.39,2.86,15.55,4.66,22.48l.21.76.15.53c.15.56.3,1.14.47,1.7l.06.21.06.26c3.34,11.77,7.67,22.92,13.37,35.83-1.09-7.1-.56-13.47.89-21.1-3.78-1.38-6.49-4.99-6.49-9.21,0-2.38.86-4.58,2.27-6.28-6.14-8.36-12.4-18.16-16.59-31.43.3,2.14.62,4.23.94,6.22v.03ZM22.62,237.87c-5.9,9.04-12.84,20.75-14.73,34.71-.27,2.35-.41,4.46-.47,6.04,0,.82-.03,1.64,0,2.47v1.11c1.65,14.76,3.45,31.43,21.13,55.61.53-.38,1.09-.73,1.71-1-6.08-24.77-11.72-54.9-7.64-98.98v.03ZM24.72,227.39c6.61-21.74,10.27-32.25,21.43-54.76-1.74-1-3.13-2.52-3.96-4.37-4.69,1.14-9.33,2.38-13.05,3.64-4.01,16.52-7.47,31.05-4.43,55.49ZM47.98,135.69c-6.61,10.62-11.04,19.66-17.39,32.78,2.39-.76,5.58-1.67,10.86-3.02-.03-.35-.06-.67-.06-1.03,0-4.78,3.57-8.72,8.18-9.36-.38-9.8.47-18.11,4.43-28.52-2.04,3.05-4.1,6.13-6.02,9.16ZM60.38,117.44c-6.41,14.58-9.18,23.68-8.41,37.59.97.12,1.89.35,2.75.73,12.01-23.33,24.29-44.54,51.06-75.09-13.93,9.21-28.51,19.54-45.4,36.77ZM56.77,156.96c.24.18.47.38.68.59,15.11-13.41,47.76-40.73,121.99-78.2-.12-.5-.18-1.03-.21-1.56-12.1-.41-24.32-.59-36.22-.79-9.98-.15-20.28-.32-30.43-.62-25.59,28.73-39.08,48.15-55.82,80.58ZM179.51,75c.77-2.91,2.92-5.22,5.7-6.22-1.89-16.4-2.3-27.88.53-38.44-29.22,15.32-47.52,27.35-69.75,43.43,44.42.62,51.09.7,63.52,1.26v-.03ZM165.93,32.72l-1.65.65-1.86.7c-.53.21-1.09.44-1.68.67l-.29.12-7.03,3.17c-.94.44-1.83.85-2.69,1.23-12.66,7.66-22.93,13.88-34.36,31.46,18.65-13.44,36.39-25.5,65.35-40.73-5.37.7-11.13,1.58-15.76,2.73h-.03ZM186.06,26.41c-2.13.47-4.25,1.03-6.35,1.61,2.01-.29,4.13-.56,6.46-.85-.06-.26-.09-.53-.12-.76ZM188.54,25.91v.26c.18-.12.35-.23.53-.35-.18.03-.38.06-.56.09h.03ZM189.78,23.45l-.38.26c1.21-.21,2.42-.35,3.63-.5,0,0,.03,0,.06-.03-1.06,0-2.07.12-3.31.26ZM193.88,25.15c-.47.32-.97.65-1.51,1,2.33-.41,4.81-.82,7.53-1.23h-.86c-1.65,0-3.39.09-5.2.26l.03-.03ZM215.34,15.88h-.15.15ZM219.21,16.84h-.56l.06-1.03-.09.56h-.12v.47h-.86c-.74,0-1.45,0-2.21.06h-.32c-.21.03-.38.06-.59.09-1.21.44-2.89,1.64-4.01,2.58l-.59.5-.62-.47c-.56-.41-1.71-.67-2.98-.67h-.3c-2.3.85-4.19,1.61-6.73,2.99,1.68.32,3.63.76,5.9,1.38l.32.09.41.09-.09.5h.18c7.23-1,15.88-2.05,26.8-3.05-5.31-2.14-9.5-3.64-13.55-4.05l-.06-.03ZM189.34,28.9v.09l-.74.12c-1.92,7.07-3.6,14.26-.65,39.12h.38c1.56,0,3.04.38,4.34,1.09,3.69-3.99,7.38-7.95,11.07-11.91,10.36-11.09,21.08-22.54,30.99-34.39-11.33,1.06-26.36,2.52-45.4,5.93v-.03ZM237.45,23.62c-10.04,12-20.84,23.62-31.29,34.89-3.81,4.11-7.61,8.22-11.39,12.35.44.44.86.94,1.21,1.47,19.27-6.84,32.53-11.21,55.29-17.69-3.95-11.94-7.5-22.3-13.81-30.99v-.03ZM257.08,22.39c-5.64,0-11.45.09-17.33.26,4.34,6.34,8.32,12.74,14.08,30.66,35.01-23.06,39.38-25.97,44.01-29.43-10.57-.7-23.58-1.5-40.79-1.5h.03ZM301.03,24.88c-6.38,4.67-7.97,5.72-43.8,29.46,18.3.67,28.01,1.14,46.4,2.79.89-3.23,3.45-5.72,6.7-6.57-1.36-12.47-4.49-18.37-9.3-25.71v.03ZM304.3,24.88c5.9,8.19,7.7,16.7,8.77,25.38,1.45.06,2.8.41,4.01,1.06,6.52-8.1,10.48-13.76,12.78-19.9-7.5-2.02-17.3-4.55-25.56-6.54ZM319.48,53.11c1.62,1.67,2.66,3.96,2.66,6.49,0,1.12-.21,2.14-.56,3.14,20.22,11.09,71.25,39.91,115.09,85.42-14.55-27.94-45.04-81.49-104.11-115.59-2.51,5.81-4.93,10.45-13.08,20.54ZM433.56,72.42c-33.47-22.3-71.55-32.89-95.05-38.79,23.32,14.64,68.13,46.04,103.13,118.23,11.04-41.14,6.17-58.6-8.09-79.44ZM442.3,161.81c-7.59,31.46-14.76,53.85-40.47,107.75,24.56,15.79,31.05,20.75,48.23,36.83,4.93-40.06,8.12-84.34-7.76-144.58ZM444.48,159.55c11.25,44.51,16.53,84.92,8.62,144.9,23.41-30.49,39.73-53.23,50.5-82.02-19.75-29.46-30.79-40.44-59.12-62.88Z"/>
</svg>