<?xml version="1.0" encoding="UTF-8"?>
<svg id="Layer_1" xmlns="http://www.w3.org/2000/svg" version="1.1" viewBox="0 0 512 512">
  <!-- Generator: Adobe Illustrator 29.2.1, SVG Export Plug-In . SVG Version: 2.1.0 Build 116)  -->
  <defs>
    <style>
      .st0 {
        fill: #fff;
      }
    </style>
  </defs>
  <path class="st0" d="M264-.5l27.22,5.28c41.41,12.3,75.58,46.51,86.49,88.51,6.9,26.57,3.47,53.99,4.34,81.16,16.5,3.39,35.79,4.78,48.95,16.05v253l-4.04,5.47c-55.71,23.15-113.51,41.22-169.96,62.53h-4l-163.99-59.51c-4.79-1.75-7.3-4.39-10.01-8.49v-253c13.19-10.96,32.56-12.64,48.95-16.05.58-28.03-2.31-55.89,5.33-83.17C145.47,47.8,181.48,13.97,225.18,3.18l21.82-3.68h17ZM189,118c-1.42,16.12,1.06,34.17,0,50.5,1.18-.47,2.13-.93,3.47-1.03,29.34-2.19,58.74-1.76,87.99-.93,13.85.39,27.71.59,41.55.96.91-40.94,4.47-92.03-45-104.51-42.12-10.63-83.93,8.87-88.01,55.01ZM239.79,228.79c-21.68,1.43-43.61.88-65.15,3.85-5.36.74-22.84,2.78-25.13,7.87l-.5,155.46c.57,3.16,4.11,4.15,6.72,5.28,30.44,13.19,64.69,21.59,95.44,34.55l5.29.73,104.04-38.04.54-155.56c-1.01-7.71-20.02-9.41-26.68-10.32-12.86-1.76-25.97-1.51-38.83-3.17l-55.75-.66Z"/>
</svg>