<svg xmlns="http://www.w3.org/2000/svg" id="Layer_1" viewBox="0 0 512 512"><defs><style>      .st0 {        fill: #fff;      }      .st1 {        fill: none;      }      .st2 {        fill: #f7931a;      }    </style></defs><polyline class="st1" points="-183.86 773.07 -375.86 773.07 -375.86 725.07 -183.86 725.07"></polyline><line class="st1" x1="-201.14" y1="548.37" x2="-201.14" y2="480.37"></line><g id="Layer_x5F_1"><g id="_1421344023328"><path class="st2" d="M504.31,317.93c-34.19,137.14-173.1,220.61-310.26,186.41C56.95,470.15-26.51,331.23,7.7,194.1,41.87,56.94,180.78-26.53,317.89,7.66c137.15,34.19,220.61,173.12,186.41,310.27h0s0,0,0,0Z"></path><path class="st0" d="M368.88,219.53c5.1-34.07-20.84-52.38-56.31-64.6l11.51-46.15-28.09-7-11.2,44.93c-7.39-1.84-14.97-3.58-22.51-5.3l11.28-45.23-28.07-7-11.51,46.13c-6.11-1.39-12.11-2.77-17.94-4.22l.03-.15-38.74-9.67-7.47,30s20.84,4.78,20.4,5.07c11.38,2.84,13.43,10.37,13.09,16.34l-13.11,52.57c.78.2,1.8.49,2.92.94-.94-.23-1.93-.49-2.97-.73l-18.37,73.65c-1.39,3.46-4.92,8.64-12.87,6.67.28.41-20.42-5.1-20.42-5.1l-13.95,32.16,36.56,9.11c6.8,1.71,13.47,3.49,20.03,5.17l-11.62,46.68,28.06,7,11.51-46.18c7.67,2.08,15.1,4,22.39,5.81l-11.47,45.96,28.09,7,11.62-46.59c47.9,9.07,83.92,5.41,99.08-37.92,12.22-34.88-.61-55-25.81-68.13,18.36-4.23,32.18-16.31,35.87-41.24h0s0,0,0,0ZM304.7,309.53c-8.68,34.88-67.42,16.03-86.46,11.3l15.43-61.84c19.04,4.75,80.1,14.16,71.03,50.54h0ZM313.39,219.02c-7.92,31.73-56.8,15.61-72.66,11.66l13.99-56.08c15.86,3.95,66.93,11.33,58.68,44.43h0Z"></path></g></g></svg>