<svg xmlns="http://www.w3.org/2000/svg" xmlns:xlink="http://www.w3.org/1999/xlink" id="Layer_1" data-name="Layer 1" viewBox="0 0 900 900"><defs><style>      .cls-1 {        fill: url(#linear-gradient-2);      }      .cls-2 {        fill: url(#linear-gradient-6);      }      .cls-3 {        fill: url(#linear-gradient-5);      }      .cls-4 {        fill: url(#linear-gradient-7);      }      .cls-5 {        fill: url(#linear-gradient-3);      }      .cls-6 {        fill: url(#linear-gradient);      }      .cls-7 {        fill: url(#linear-gradient-4);      }    </style><linearGradient id="linear-gradient" x1="131.8" y1="768.2" x2="768.2" y2="131.8" gradientUnits="userSpaceOnUse"><stop offset="0" stop-color="#0c066a"></stop><stop offset="1" stop-color="#48448f"></stop></linearGradient><linearGradient id="linear-gradient-2" x1="206.75" y1="703.58" x2="741.75" y2="343.69" gradientUnits="userSpaceOnUse"><stop offset="0" stop-color="#ef4b3d"></stop><stop offset="1" stop-color="#f7984a"></stop></linearGradient><linearGradient id="linear-gradient-3" x1="61.41" y1="477.18" x2="514.89" y2="23.7" gradientUnits="userSpaceOnUse"><stop offset="0" stop-color="#ef4b3d"></stop><stop offset="1" stop-color="#f7984a"></stop></linearGradient><linearGradient id="linear-gradient-4" x1="217.86" y1="356.84" x2="335.8" y2="238.9" xlink:href="#linear-gradient-3"></linearGradient><linearGradient id="linear-gradient-5" x1="178.79" y1="657.2" x2="640.81" y2="195.18" xlink:href="#linear-gradient-3"></linearGradient><linearGradient id="linear-gradient-6" x1="443.14" y1="580.87" x2="705.09" y2="318.92" xlink:href="#linear-gradient-3"></linearGradient><linearGradient id="linear-gradient-7" x1="108.57" y1="555.5" x2="661.08" y2="221.87" gradientUnits="userSpaceOnUse"><stop offset=".04" stop-color="#ef4b3d"></stop><stop offset="1" stop-color="#f7984a"></stop></linearGradient></defs><circle class="cls-6" cx="450" cy="450" r="450"></circle><path class="cls-1" d="m565.46,462.21c-.31.26-.63.52-.94.78.31-.26.63-.52.94-.78Z"></path><g><path class="cls-5" d="m231.95,306.75c-.33.26-.67.52-1,.78.33-.26.67-.52,1-.78Z"></path><path class="cls-7" d="m268.02,307.54c-.3-.26-.61-.53-.91-.79.3.26.61.53.91.79Z"></path><path class="cls-3" d="m529.27,306.74c-.29.28-.59.56-.88.83.29-.28.59-.56.88-.83Z"></path><path class="cls-2" d="m692.03,434.92c21.72-11.06,35.31-30.53,32.14-62.97-4.28-44.33-42.59-59.2-90.95-63.43v-61.49h-37.48v59.87c-9.87,0-19.92.19-29.92.39v-60.26s-37.45,0-37.45,0v61.48c-8.12.17-16.09.32-23.87.32v-.18l-51.69-.02v39.97s27.68-.52,27.22-.02c15.17.01,20.13,8.81,21.55,16.41v70.05s.01,98.4.01,98.4c-.67,4.77-3.48,12.39-14.09,12.4.48.42-27.26,0-27.26,0l-7.43,44.7h48.76c9.08.01,18.01.15,26.77.22l.03,62.19h37.43s-.01-61.53-.01-61.53c10.3.21,20.24.3,29.95.29v61.25s37.46,0,37.46,0l.02-62.08c62.99-3.61,107.08-19.47,112.56-78.57,4.42-47.58-17.99-68.82-53.75-77.39Zm-125.32-83.62c21.13,0,87.6-6.72,87.61,37.38,0,42.29-66.45,37.35-87.61,37.35v-74.73Zm-.02,194.86l.02-82.4c25.39,0,105.03-7.3,105.04,41.18.01,46.49-79.65,41.2-105.06,41.22Z"></path><path class="cls-4" d="m394.53,434.92c21.72-11.06,35.31-30.53,32.14-62.97-4.28-44.33-42.59-59.2-90.95-63.43v-61.49h-37.48v59.87c-9.87,0-19.92.19-29.92.39v-60.26s-37.45,0-37.45,0v61.48c-8.12.17-16.09.32-23.87.32v-.18l-51.69-.02v39.97s27.68-.52,27.22-.02c15.17.01,20.13,8.81,21.55,16.41v70.05s.01,98.4.01,98.4c-.67,4.77-3.48,12.39-14.09,12.4.48.42-27.26,0-27.26,0l-7.43,44.7h48.76c9.08.01,18.01.15,26.77.22l.03,62.19h37.43s-.01-61.53-.01-61.53c10.3.21,20.24.3,29.95.29v61.25s37.46,0,37.46,0l.02-62.08c62.99-3.61,107.08-19.47,112.56-78.57,4.42-47.58-17.99-68.82-53.75-77.39Zm-125.32-83.62c21.13,0,87.6-6.72,87.61,37.38,0,42.29-66.45,37.35-87.61,37.35v-74.73Zm-.02,194.86l.02-82.4c25.39,0,105.03-7.3,105.04,41.18.01,46.49-79.65,41.2-105.06,41.22Z"></path></g></svg>