<svg xmlns="http://www.w3.org/2000/svg" id="Layer_1" viewBox="0 0 512 512"><defs><style>      .st0 {        fill: #345d9d;      }      .st1 {        fill: #fff;      }      .st2 {        fill: none;      }    </style></defs><ellipse class="st1" cx="254.44" cy="266.46" rx="176.43" ry="202.53"></ellipse><polyline class="st2" points="-183.86 773.07 -375.86 773.07 -375.86 725.07 -183.86 725.07"></polyline><line class="st2" x1="-201.14" y1="548.37" x2="-201.14" y2="480.37"></line><path class="st0" d="M256,0C114.61,0,0,114.62,0,256s114.62,256,256,256,256-114.62,256-256h0C512.41,115.03,398.46.41,257.49,0c0,0,0,0,0,0h-1.49ZM260.34,264.68l-26.65,89.88h142.57c3.97-.14,7.3,2.97,7.44,6.93,0,0,0,0,0,0v2.36l-12.4,42.77c-1.13,4.17-4.99,7-9.3,6.82h-218.19l36.57-124.59-40.91,12.4,9.3-28.51,40.91-12.4,51.45-174.8c1.17-4.14,5-6.95,9.3-6.82h55.17c3.97-.14,7.3,2.97,7.44,6.93h0v2.36l-43.39,147.53,40.91-12.4-8.68,29.75-41.53,11.78Z"></path></svg>