<?xml version="1.0" encoding="UTF-8"?>
<svg id="Layer_1" xmlns="http://www.w3.org/2000/svg" version="1.1" viewBox="0 0 512 512">
  <!-- Generator: Adobe Illustrator 29.2.1, SVG Export Plug-In . SVG Version: 2.1.0 Build 116)  -->
  <defs>
    <style>
      .st0 {
        fill: #c9fd36;
      }
    </style>
  </defs>
  <path class="st0" d="M392.08,137.07c0-5.35,4.4-9.75,9.75-9.75h37.51c5.35,0,9.75,4.4,9.77,9.75v30.56c0,5.35,4.41,9.77,9.77,9.77h29.56c5.37.04,9.71,4.38,9.75,9.75v137.72c-.03,5.36-4.37,9.7-9.73,9.73h-29.58c-5.38.03-9.74,4.38-9.77,9.77v30.56c-.02,5.38-4.38,9.73-9.75,9.75h-37.52c-5.38-.02-9.73-4.38-9.75-9.75v-37.55c0-5.35,4.4-9.75,9.75-9.75h29.6c5.38-.03,9.73-4.38,9.77-9.75v-123.81c-.03-5.37-4.37-9.71-9.74-9.74h-29.64c-5.37-.03-9.71-4.37-9.74-9.74,0,0,0-37.51,0-37.51ZM119.96,137.07c-.02-5.38-4.38-9.73-9.75-9.75h-37.56c-5.37.04-9.71,4.38-9.75,9.75v30.56c-.03,5.38-4.38,9.74-9.77,9.77h-29.56c-5.37.04-9.71,4.38-9.75,9.75v137.72c.03,5.36,4.37,9.7,9.73,9.73h29.58c5.35,0,9.77,4.41,9.77,9.77v30.55c.04,5.37,4.38,9.73,9.75,9.77h37.56c5.38-.02,9.73-4.38,9.75-9.75v-37.55c-.02-5.38-4.38-9.73-9.75-9.75h-29.58c-5.38-.03-9.73-4.38-9.77-9.75v-123.78c0-5.35,4.41-9.77,9.77-9.77h29.6c5.37-.03,9.71-4.37,9.74-9.74v-37.51ZM221.26,194.84c.04-4.48,3.66-8.11,8.15-8.15h82.41c3.23.02,6.15,1.95,7.44,4.92l13.36,30.86c1.28,2.98,4.2,4.91,7.44,4.93h27.65c4.45,0,8.12,3.67,8.12,8.12v91.1c-.02,4.49-3.66,8.12-8.15,8.15h-34.96c-4.49-.02-8.12-3.66-8.15-8.15v-84.58c-.03-4.48-3.64-8.1-8.12-8.15h-35.81c-4.48.04-8.09,3.67-8.12,8.15v84.58c-.02,4.49-3.66,8.12-8.15,8.15h-34.96c-4.49-.02-8.12-3.66-8.15-8.15,0,0,0-131.77,0-131.77ZM138.28,194.84c.04-4.48,3.66-8.11,8.15-8.15h34.98c4.48.04,8.1,3.66,8.13,8.15v131.77c-.02,4.48-3.65,8.12-8.13,8.15h-34.98c-4.49-.02-8.12-3.66-8.15-8.15v-131.77Z"/>
</svg>