<?xml version="1.0" encoding="UTF-8"?>
<svg id="Layer_1" xmlns="http://www.w3.org/2000/svg" version="1.1" viewBox="0 0 512 512">
  <!-- Generator: Adobe Illustrator 29.2.1, SVG Export Plug-In . SVG Version: 2.1.0 Build 116)  -->
  <defs>
    <style>
      .st0 {
        fill: #fff;
      }

      .st1 {
        fill: #00c36f;
      }
    </style>
  </defs>
  <polygon class="st1" points="348.86 263.17 374.27 358.24 403.72 263.23 425.8 263.12 456.47 358.23 482.22 263.17 505.33 263.17 467.3 394.59 445.32 394.48 414.55 294.21 383.79 394.48 362.13 394.48 323.77 263.17 348.86 263.17"/>
  <path class="st1" d="M110.53,360.88v-97.71h23.11v131.38h-29.38c-20.59-30.46-39.33-62.19-59.73-92.77-1.42-2.13-3.18-5.33-4.75-7.14-.59-.69-.63-1.38-1.87-1.1v101.01H15.46v-131.38h30.04l63.16,96.61,1.87,1.1Z"/>
  <path class="st1" d="M225.93,260.06c49.05-4.34,83.04,26.05,79.35,76.05-3.42,46.23-49.24,70.92-91.9,58.91-68.68-19.34-60.97-128.45,12.55-134.96ZM229.89,280.53c-56.36,5.79-51.64,99.69,8.38,96.85,59.97-2.84,57.72-103.64-8.38-96.85Z"/>
  <path class="st0" d="M400.36,164.8v-10.56h9.24v70.97c0,2.55-2.56,10.15-3.84,12.67-8.85,17.36-35.32,19.07-51.1,11.24-2.19-1.09-9.27-5.6-10.47-7.36-1.74-2.53,3.78-6.3,5.33-8.65.47-.2,5.74,5.27,7.04,6.18,11.92,8.36,34.55,8.28,41.28-6.69.6-1.32,2.51-7.63,2.51-8.71v-16.17c-18.16,23.46-56.97,10.9-58.79-18.79-2.05-33.37,37.18-49.14,58.79-24.13ZM359,204.18c15.34,15.91,42.22,4.06,41.98-17.82-.22-19.72-20.66-32.21-37.8-21.44-13.22,8.31-14.91,28.14-4.18,39.26Z"/>
  <path class="st0" d="M96.67,113.96v50.84c1.51-1.05,2.27-3.27,3.64-4.62,10.18-10.02,32.06-10.81,39.62,2.62.91,1.62,3.62,7.45,3.62,8.92v47.86h-9.24v-41.92c0-1.06-1.77-6.23-2.32-7.58-5.92-14.4-25.94-10.44-32.37,1.93-.76,1.46-2.93,7.64-2.93,8.95v38.62h-9.24v-105.63h9.24Z"/>
  <path class="st0" d="M501.37,189.23l-54.8.66c2.46,24,31.31,31.71,45.22,11.95l6.94,5.57c-13.3,19.49-44.48,18.9-56.65-1.47-15.14-25.36,4.01-58.35,34.36-52.85,17.39,3.15,25.9,19.46,24.93,36.15ZM490.8,181.96c.76-29.26-42.34-26.63-43.57,0h43.57Z"/>
  <path class="st0" d="M227.39,219.59h-9.24l-.67-9.9c-6.6,9.36-15.29,12.9-26.76,11.91-7.57-.66-16.87-5.92-18.5-13.85-5.49-26.71,26.01-29.21,44.6-27.76,2.06-22.77-23.51-22.47-36.55-11.27l-5.67-6.23c13.52-14.4,49.04-14.56,51.46,9.91,1.51,15.18-2.01,32.04,1.33,47.2ZM216.82,187.24h-12.87c-3.29,0-11.33,1.95-14.44,3.38-12.95,5.96-8.84,21.02,4.55,22.36,16.54,1.65,24.4-10.37,22.77-25.74Z"/>
  <path class="st0" d="M313.21,219.59h-9.24v-43.24c0-.62-2.05-6.36-2.51-7.39-1.54-3.44-3.79-5.84-7.51-7.01-13.22-4.19-24.62,4.86-26.88,17.77l-.07,39.87h-9.9v-63.71c0-.2-.91-.94-.66-1.65h9.9v10.56c8.25-13.47,33.52-17.21,42.8-3.52.74,1.08,4.07,8.34,4.07,9.13v49.18Z"/>
  <path class="st0" d="M64.88,164.71c-.22.39-6.9,4.84-7.45,4.76-11.65-15.56-35.21-8.65-39.68,9.83-6.39,26.39,20.53,45.56,40.28,25.27l6.89,5.55c-14.85,19.36-48.4,12.95-56.09-9.97-10.37-30.89,18.33-59.12,47.57-43.61,1.85.98,9.8,5.85,8.48,8.18Z"/>
</svg>