<?xml version="1.0" encoding="UTF-8"?>
<svg id="Layer_1" xmlns="http://www.w3.org/2000/svg" version="1.1" viewBox="0 0 512 512">
  <!-- Generator: Adobe Illustrator 29.2.1, SVG Export Plug-In . SVG Version: 2.1.0 Build 116)  -->
  <defs>
    <style>
      .st0 {
        fill: #fabc2c;
      }

      .st1 {
        fill: #fff;
      }

      .st2 {
        fill: none;
      }
    </style>
  </defs>
  <polyline class="st2" points="-183.86 773.07 -375.86 773.07 -375.86 725.07 -183.86 725.07"/>
  <g>
    <path class="st1" d="M298.93,361.08l-83.13,35.73v-3.57c-16.03,4.06-33.79,6.4-50.6,7.15-78.18-.75-140.24-41.2-140.96-89.33v-17.87c25.68,36.91,77.95,61.64,140.96,60.75,21.32.89,43.12-2.44,61.44-7.15l7.23-17.87c-21.73,6.41-45.45,10.87-68.67,10.72-78.18.15-140.24-40.3-140.96-89.33v-14.29c25.68,34.12,77.84,58.86,140.96,57.17,28.4,1.69,56.17-4.21,79.51-14.29l3.62-17.87c-22.81,11.9-52.38,18.81-83.13,17.87-78.18.94-140.24-39.51-140.96-89.33v-14.29c25.68,34.92,77.95,59.65,140.96,60.74,35.81-1.09,69.76-10.45,97.59-25.02l3.62-21.44c-25.26,18.51-62.14,30.44-101.21,32.16-78.18-1.73-140.23-42.18-140.96-92.9.72-48.24,62.78-88.69,140.96-89.33,46.61.64,89.89,16.8,115.67,42.88l2.51,4.13,18.23.07-2.67-4.21c-25.63-34.44-76.9-57.17-133.74-57.17C78.69,25.2,9.78,72.34,9.78,128.82v185.8c3.04,55.14,70.38,100.05,155.42,100.05,56.17,0,106.64-21.84,133.74-53.59Z"/>
    <path class="st0" d="M265.12,486.8l29.19-122.61-83.9,36.06,51.07-212.77h-98.5l25.54-104.58h313.71l-25.54,104.58h-102.13l-21.89,57.7,113.08-46.88-200.62,288.5ZM316.19,338.94l-14.59,72.13,120.37-180.31-98.49,43.28,43.78-100.98h98.48l18.24-75.73H199.46l-18.24,75.73h98.49l-47.42,201.95,83.91-36.06h0Z"/>
  </g>
</svg>