<?xml version="1.0" encoding="UTF-8"?>
<svg id="Layer_1" xmlns="http://www.w3.org/2000/svg" version="1.1" viewBox="0 0 1024 1024">
  <!-- Generator: Adobe Illustrator 29.2.1, SVG Export Plug-In . SVG Version: 2.1.0 Build 116)  -->
  <defs>
    <style>
      .st0 {
        fill: #fcfcfd;
      }
    </style>
  </defs>
  <path class="st0" d="M856,509.71l-271.31,272.17-57.52-57.53,262.72-262.72c12.02-12.02,12.02-31.77,0-43.79l-249.85-249.85h83.28c20.6,0,40.35,7.73,54.95,22.32l155.4,156.26c14.6,14.6,22.32,33.48,22.32,54.09v109.04Z"/>
  <path class="st0" d="M783.88,440.17l-57.53,56.67L464.49,234.97c-6.01-6.01-14.6-9.44-22.32-9.44s-16.31,3.43-22.32,9.44l-249.85,248.99v-83.28c0-20.61,8.59-39.49,23.18-54.09l155.4-156.26c14.6-14.6,34.34-22.32,54.95-22.32h108.18l272.17,272.17Z"/>
  <path class="st0" d="M623.33,854h-109.04l-271.31-272.17,56.67-56.67,262.72,261.86c12.02,12.02,31.77,12.02,43.79,0l249.84-248.99v83.28c0,20.6-7.73,39.49-22.32,54.09l-155.4,155.4c-14.6,14.6-34.34,23.18-54.95,23.18Z"/>
  <path class="st0" d="M486.81,854h-83.28c-20.61,0-40.35-8.59-54.95-23.18l-155.4-155.4c-14.6-14.6-23.18-33.48-23.18-54.09v-109.04L442.17,240.12l57.52,57.52-262.72,261.86c-12.02,12.88-12.02,32.63,0,44.65l249.85,249.84Z"/>
</svg>