<?xml version="1.0" encoding="UTF-8"?>
<svg id="Layer_1" xmlns="http://www.w3.org/2000/svg" version="1.1" viewBox="0 0 512 512">
  <!-- Generator: Adobe Illustrator 29.2.1, SVG Export Plug-In . SVG Version: 2.1.0 Build 116)  -->
  <defs>
    <style>
      .st0 {
        fill: #f8bf1e;
        fill-rule: evenodd;
      }
    </style>
  </defs>
  <path class="st0" d="M454.77,18.85c-3.02-.71-5.99-1.61-8.89-2.69h-17.18c-16.81,4.2-30.05,14.19-43.54,24.37l-1.44,1.09c-22.48,17.17-53.23,17.17-74.44-.22-13.37-10.96-26.94-20.47-43.92-25.24h-16.96c-18.05,4.15-32.04,14.69-46.25,25.46-22.7,17.17-53.65,17.17-75.08-.84-13.35-11.16-27.14-20.27-44.11-24.62h-16.96c-4.03,1.45-8.27,2.89-12.52,4.35-20.56,7.45-33.29,21.93-39.66,42-.44,1.25-.9,2.49-1.39,3.73-.48,1.23-.94,2.48-1.37,3.73v16.55c4.25,17.18,14.01,30.64,26.07,43.46,19.1,21.33,19.32,52.98.43,73.88-11.87,13.04-21.63,26.71-26.29,43.67v16.55c4.45,16.96,14.42,30.42,26.29,43.67,18.45,20.69,18.67,52.35.22,73.04-11.87,13.45-22.28,27.11-26.51,44.69v16.55c1.69,3.94,3.18,8.09,4.66,12.22,7.64,20.07,22.26,32.69,42.84,38.91,1.27.42,2.56.87,3.83,1.34,1.27.47,2.54.94,3.81,1.34h16.96c17.4-4.35,31.19-14.06,44.76-25.64,21.64-18.42,54.3-18.42,75.71.2,13.59,11.58,27.58,21.11,44.98,25.46h16.96c1.74-.57,3.49-1.22,5.25-1.89,2.11-.79,4.23-1.57,6.42-2.26,28.21-9.53,46.88-38.27,42.42-65.6-5.08-31.86-29.05-53.38-60.67-54.62-18.44-.62-33.93,5.38-47.3,17.38-18.02,16.35-38.81,24-63.18,17.18-47.3-13.04-63.85-69.33-30.35-104.3,15.06-15.73,21.86-33.53,19.52-54.64-1.81-15.81-11.33-27.38-20.94-39.06l-1.75-2.12c-35.22-42.84-2.12-92.48,35.85-101.6,23.33-5.58,42.84,1.45,59.8,17.6,25.89,24.4,64.92,26.27,88.67,1.86,26.74-27.31,68.53-28.15,95.44.2,17.83,18.64,47.53,21.73,70.87,10.56,24.39-11.8,37.54-35.8,34.77-64.15-2.11-23.4-21.41-44.91-45.8-51.53h-.02ZM438.22,413.67c-12.5-.2-22.06,8.69-22.06,21.11s9.36,21.73,21.64,21.53c12.1,0,22.28-10.15,22.06-21.73-.22-11.16-9.96-20.69-21.63-20.89l-.02-.02ZM416.16,260.76c.23-12.42,9.36-21.11,22.28-20.89,11.88.2,21.43,9.73,21.43,21.11s-10.4,21.73-22.26,21.73c-11.97-.17-21.55-9.98-21.43-21.95h-.02ZM256.24,283.94c11.61.44,21.39-8.61,21.83-20.22.01-.36.02-.72.01-1.09.22-12.42-9.11-21.53-21.85-21.33-11.87.22-21.43,9.33-21.85,20.71-.42,11.58,9.76,21.73,21.85,21.93Z"/>
</svg>