<?xml version="1.0" encoding="UTF-8"?>
<svg id="Layer_1" xmlns="http://www.w3.org/2000/svg" version="1.1" xmlns:xlink="http://www.w3.org/1999/xlink" viewBox="0 0 512 512">
  <!-- Generator: Adobe Illustrator 29.2.1, SVG Export Plug-In . SVG Version: 2.1.0 Build 116)  -->
  <defs>
    <style>
      .st0 {
        fill: #fff;
      }

      .st1 {
        fill: none;
      }

      .st2 {
        fill: url(#linear-gradient);
      }
    </style>
    <linearGradient id="linear-gradient" x1="0" y1="256" x2="512" y2="256" gradientUnits="userSpaceOnUse">
      <stop offset="0" stop-color="#e21b33"/>
      <stop offset="1" stop-color="#b5041c"/>
    </linearGradient>
  </defs>
  <rect class="st2" width="512" height="512"/>
  <polyline class="st1" points="-183.86 773.07 -375.86 773.07 -375.86 725.07 -183.86 725.07"/>
  <g>
    <path class="st0" d="M391.56,431.84v-87.08c-71.12,32.87-168.59,46.4-180.5-55.63-14.74-126.26,49.93-180.42,167.07-121.88l29.74-78.78c-84.72-44.25-203.44-42.86-265.55,38.87-45.09,59.34-48.1,163.5-20.32,230.75,43.77,105.93,176.38,110.27,269.56,73.75Z"/>
    <path class="st0" d="M391.56,431.84c-93.18,36.51-225.79,32.18-269.56-73.75-27.79-67.25-24.77-171.41,20.32-230.75,62.11-81.73,180.83-83.12,265.55-38.87l-29.74,78.78c-117.14-58.53-181.81-4.38-167.07,121.88,11.91,102.02,109.38,88.5,180.5,55.63v87.08Z"/>
  </g>
</svg>