<?xml version="1.0" encoding="UTF-8"?>
<svg id="Layer_1" xmlns="http://www.w3.org/2000/svg" version="1.1" viewBox="0 0 512 512">
  <!-- Generator: Adobe Illustrator 29.2.1, SVG Export Plug-In . SVG Version: 2.1.0 Build 116)  -->
  <defs>
    <style>
      .st0 {
        fill: none;
      }

      .st1 {
        fill: #c2c2c2;
      }

      .st2 {
        fill: #9b9b9b;
      }

      .st3 {
        fill: #c1c1c1;
      }

      .st4 {
        fill: #e1e1e1;
      }
    </style>
  </defs>
  <polyline class="st0" points="-183.86 773.07 -375.86 773.07 -375.86 725.07 -183.86 725.07"/>
  <g>
    <path class="st4" d="M196.46,257.27c.06,38.83-.03,77.77-.01,116.6l240.78,2.52c-39.66-.04-79.45.06-119.12,0-40.51-.06-81.15.05-121.67-.01v119.13c-40.5-.1-81.14.06-121.65.01-.05-39.67.11-79.46.01-119.13h119.13s-.01-119.12-.01-119.12h2.53Z"/>
    <path class="st4" d="M193.92,135.61c40.51,0,81.14.1,121.65,0l-119.13,2.52c.07,39.67-.05,79.46.01,119.13h-121.65c-.02-40.51-.1-81.14,0-121.65h119.12Z"/>
    <path class="st3" d="M315.58,16.5v119.12c-40.51.1-81.14,0-121.65,0V16.5c40.51-.1,81.15-.1,121.65,0Z"/>
    <path class="st4" d="M315.58,16.5c40.51.1,81.14-.07,121.65,0v119.12c-40.51.07-81.14-.1-121.65,0V16.5Z"/>
    <path class="st1" d="M318.11,376.39v119.12c-40.51.1-81.15.1-121.65,0v-119.13c40.5.07,81.14-.05,121.65.01Z"/>
    <path class="st2" d="M193.92,16.5v119.12h-119.12c.1-39.67-.06-79.46-.01-119.13,39.67-.05,79.46.11,119.13.01Z"/>
    <path class="st1" d="M193.92,257.27v119.13s-119.12-.01-119.12-.01c-.1-39.66.02-79.45,0-119.12h119.12Z"/>
    <path class="st2" d="M437.23,376.39v119.13c-39.66.05-79.45-.11-119.12-.01v-119.12c39.66.06,79.45-.04,119.12,0Z"/>
  </g>
</svg>