<?xml version="1.0" encoding="UTF-8"?>
<svg id="Layer_1" xmlns="http://www.w3.org/2000/svg" version="1.1" viewBox="0 0 512 512">
  <!-- Generator: Adobe Illustrator 29.2.1, SVG Export Plug-In . SVG Version: 2.1.0 Build 116)  -->
  <defs>
    <style>
      .st0 {
        fill: #fff;
      }

      .st1 {
        fill: none;
      }
    </style>
  </defs>
  <polyline class="st1" points="-183.86 773.07 -375.86 773.07 -375.86 725.07 -183.86 725.07"/>
  <g>
    <path class="st0" d="M125.11,152.33l13.6-13.6-62.2-62.2-13.6,13.6c-81.79,81.79-81.77,214.91.04,296.72,81.81,81.81,214.93,81.84,296.72.04l13.6-13.6-62.2-62.2-13.6,13.6c-47.51,47.51-124.8,47.49-172.33-.04-47.53-47.53-47.53-124.82-.04-172.33Z"/>
    <path class="st0" d="M386.89,359.67l-13.6,13.6,62.2,62.2,13.6-13.6c81.79-81.79,81.77-214.91-.04-296.72-81.81-81.81-214.93-81.84-296.72-.04l-13.6,13.6,62.2,62.2,13.6-13.6c47.51-47.51,124.8-47.49,172.33.04,47.53,47.53,47.53,124.82.04,172.33Z"/>
  </g>
</svg>