<?xml version="1.0" encoding="UTF-8"?>
<svg id="Layer_1" xmlns="http://www.w3.org/2000/svg" version="1.1" viewBox="0 0 512 512">
  <!-- Generator: Adobe Illustrator 29.2.1, SVG Export Plug-In . SVG Version: 2.1.0 Build 116)  -->
  <defs>
    <style>
      .st0 {
        fill: #27aae1;
      }
    </style>
  </defs>
  <path class="st0" d="M453.72,436.85c2.91,3.88,5.33,8.24,7.27,14.06,1.94,5.33,2.91,10.67,2.91,15.52,0,13.09-4.85,24.24-15.03,32.97-9.7,8.24-21.33,12.61-34.42,12.61-6.3,0-12.12-1.45-17.94-4.36-5.87-2.63-10.9-6.82-14.55-12.12l-157.58-207.52-69.33,65.94v113.94c0,13.09-4.36,23.76-12.61,32-8.24,8.24-19.39,12.12-32.97,12.12s-23.76-3.88-32.48-12.61c-8.33-8.34-12.89-19.73-12.61-31.52V48c0-12.61,4.36-22.79,13.09-31.52,8.73-8.24,19.88-12.61,33.45-12.61s23.76,3.88,32,12.12c8.24,8.24,12.12,18.91,12.12,32v197.82L387.78,16.97c11.15-11.15,22.79-16.97,35.39-16.97,11.15,0,20.36,4.85,28.12,14.06,7.76,9.21,11.64,18.91,11.64,29.09s-4.36,19.39-13.09,28.12l-158.06,151.27s161.94,214.3,161.94,214.3Z"/>
</svg>