<?xml version="1.0" encoding="UTF-8"?>
<svg id="Layer_1" xmlns="http://www.w3.org/2000/svg" version="1.1" viewBox="0 0 512 512">
  <!-- Generator: Adobe Illustrator 29.2.1, SVG Export Plug-In . SVG Version: 2.1.0 Build 116)  -->
  <defs>
    <style>
      .st0 {
        fill: #104ade;
      }

      .st1 {
        fill: #0038c7;
      }

      .st2 {
        fill: #0f75fc;
      }
    </style>
  </defs>
  <path class="st0" d="M134.52,377.38c-.39.84-.76,1.69-1.12,2.55-4.42,10.52-6.7,21.8-6.7,33.19s2.28,22.67,6.7,33.19c4.42,10.52,10.9,20.08,19.08,28.13,8.17,8.05,17.87,14.44,28.55,18.8s22.12,6.6,33.67,6.6,23-2.24,33.67-6.6,20.38-10.75,28.55-18.8l161.92-159.58c16.87-16.63,26.35-39.18,26.35-62.69,0-21.12-6.63-41.47-21.12-57.44-7.15-3.04-15.05-3.98-22.7-2.56-6.84,1.27-13.12,5.27-18.34,9.97l-153.82,155.59c-2.85,2.9-6.14,5.31-9.71,7.16,1.89-1.14,3.75-2.34,5.58-3.58-.16.06-.31.12-.47.19.15-.1.31-.2.46-.31.16-.11.31-.21.47-.32-.31.21-.62.42-.93.62-23.31,15.47-51.14,22.99-79.21,21.4-10.55-.6-20.91-2.47-30.87-5.53Z"/>
  <path class="st1" d="M244.59,361.5c.31-.21.62-.41.93-.62-5.91,2.36-12.33,3.23-18.66,2.52-6.34-.71-12.39-2.97-17.61-6.57-4.63-3.22-8.5-7.39-11.33-12.23-2.83-4.84-4.56-10.22-5.06-15.79-.51-5.56.22-11.17,2.14-16.42,1.91-5.26,4.97-10.04,8.94-14.01l51.2-50.9,74.78-73.7c.11-.09.21-.18.32-.27.21-.18.42-.36.64-.52l11.26-11.1c5.5-1.12,11.33-1.6,17.4-1.6,13.15,0,24.34,1.27,35.49,4.44,16.22,3.45,31.14,11.47,42.93,23.14,2.22,2.22,4.32,4.57,6.27,6.94-7.19-3.1-15.15-4.05-22.86-2.63-6.84,1.27-13.12,5.27-18.34,9.97l-153.82,155.59c-2.85,2.9-6.14,5.31-9.71,7.16,1.89-1.14,3.75-2.34,5.58-3.58-.16.06-.31.12-.47.18Z"/>
  <path class="st2" d="M368.7,65.5c-4.1-9.75-10.11-18.61-17.69-26.07-8.77-8.65-19.18-15.51-30.63-20.19-11.46-4.68-23.74-7.09-36.14-7.09s-24.68,2.41-36.14,7.09c-11.46,4.68-21.87,11.54-30.63,20.19L84.15,170.79c-23.41,23.07-36.79,54.22-37.31,86.84-.52,32.62,11.87,64.17,34.53,87.95l1.39,1.33,1.44,1.47c1.31,1.27,2.69,2.47,4.13,3.6,21.5,18.43,48.6,29.31,77.06,30.92,28.45,1.61,56.64-6.14,80.14-22.02-5.91,2.36-12.32,3.23-18.66,2.52-6.34-.71-12.39-2.97-17.61-6.57-4.63-3.22-8.5-7.39-11.33-12.23-2.83-4.84-4.56-10.22-5.06-15.79-.51-5.56.22-11.17,2.14-16.42,1.91-5.26,4.96-10.04,8.94-14.01l51.2-50.9,74.78-73.7c.32-.26.62-.54.95-.79l20.14-19.86c11.41-11.24,19.18-25.56,22.33-41.15,3.15-15.59,1.53-31.76-4.64-46.44v-.03Z"/>
</svg>