<?xml version="1.0" encoding="UTF-8"?>
<svg id="Layer_1" xmlns="http://www.w3.org/2000/svg" version="1.1" viewBox="0 0 512 512">
  <!-- Generator: Adobe Illustrator 29.2.1, SVG Export Plug-In . SVG Version: 2.1.0 Build 116)  -->
  <defs>
    <style>
      .st0 {
        fill: #fff;
      }
    </style>
  </defs>
  <path class="st0" d="M29.03,512L194.53,251.44l-74.73-127.72h108.42l25.22,35.22c10.62-13.21,15.83-25.45,21.31-34.46.28-.46.45-1.25.97-1.25,6.87,0,18.01.51,30.64.51,5.43,5.47-44.73,82.53-52.89,86-.41.17-2.1,1.56-2.34,1.26-4.89-6.08-4.75-5.51-6.5-7.93-10.67-14.84-19.32-31.15-28.9-46.69l-45.5-2.36,59.81,97.41L59.29,512h-30.26Z"/>
  <path class="st0" d="M283.68,380.89l-25.23-35.28c-6.76,10.71-13.42,28.07-18.64,34.23-.6.71-1.26,1.32-1.26,1.32s-.17.2-1.81.2c-3.84,0-14.27.05-23.65-.39-6.4-.3-10.01,1.36-7.44-7.49,2.54-8.73,48.1-78.25,52.82-78.24l37.79,52.9,45.41,2.45-59.6-97.42L447.39,0c15.33,0,12.54.09,35.41.09l-164.63,257.29,73.93,123.51h-108.42Z"/>
</svg>